  0
SECTION
  2
HEADER
  9
$ACADVER
  1
AC1024
  9
$ACADMAINTVER
 70
     6
  9
$DWGCODEPAGE
  3
ANSI_1252
  9
$INSBASE
 10
0.0
 20
0.0
 30
0.0
  9
$EXTMIN
 10
1.000000000000000E+20
 20
1.000000000000000E+20
 30
1.000000000000000E+20
  9
$EXTMAX
 10
-1.000000000000000E+20
 20
-1.000000000000000E+20
 30
-1.000000000000000E+20
  9
$LIMMIN
 10
0.0
 20
0.0
  9
$LIMMAX
 10
12.0
 20
9.0
  9
$ORTHOMODE
 70
     0
  9
$REGENMODE
 70
     1
  9
$FILLMODE
 70
     1
  9
$QTEXTMODE
 70
     0
  9
$MIRRTEXT
 70
     1
  9
$LTSCALE
 40
1.0
  9
$ATTMODE
 70
     1
  9
$TEXTSIZE
 40
0.2
  9
$TRACEWID
 40
0.05
  9
$TEXTSTYLE
  7
Standard
  9
$CLAYER
  8
0
  9
$CELTYPE
  6
ByLayer
  9
$CECOLOR
 62
   256
  9
$CELTSCALE
 40
1.0
  9
$DISPSILH
 70
     0
  9
$DIMSCALE
 40
1.0
  9
$DIMASZ
 40
0.18
  9
$DIMEXO
 40
0.0625
  9
$DIMDLI
 40
0.38
  9
$DIMRND
 40
0.0
  9
$DIMDLE
 40
0.0
  9
$DIMEXE
 40
0.18
  9
$DIMTP
 40
0.0
  9
$DIMTM
 40
0.0
  9
$DIMTXT
 40
0.18
  9
$DIMCEN
 40
0.09
  9
$DIMTSZ
 40
0.0
  9
$DIMTOL
 70
     0
  9
$DIMLIM
 70
     0
  9
$DIMTIH
 70
     1
  9
$DIMTOH
 70
     1
  9
$DIMSE1
 70
     0
  9
$DIMSE2
 70
     0
  9
$DIMTAD
 70
     0
  9
$DIMZIN
 70
     0
  9
$DIMBLK
  1

  9
$DIMASO
 70
     1
  9
$DIMSHO
 70
     1
  9
$DIMPOST
  1

  9
$DIMAPOST
  1

  9
$DIMALT
 70
     0
  9
$DIMALTD
 70
     2
  9
$DIMALTF
 40
25.4
  9
$DIMLFAC
 40
1.0
  9
$DIMTOFL
 70
     0
  9
$DIMTVP
 40
0.0
  9
$DIMTIX
 70
     0
  9
$DIMSOXD
 70
     0
  9
$DIMSAH
 70
     0
  9
$DIMBLK1
  1

  9
$DIMBLK2
  1

  9
$DIMSTYLE
  2
Standard
  9
$DIMCLRD
 70
     0
  9
$DIMCLRE
 70
     0
  9
$DIMCLRT
 70
     0
  9
$DIMTFAC
 40
1.0
  9
$DIMGAP
 40
0.09
  9
$DIMJUST
 70
     0
  9
$DIMSD1
 70
     0
  9
$DIMSD2
 70
     0
  9
$DIMTOLJ
 70
     1
  9
$DIMTZIN
 70
     0
  9
$DIMALTZ
 70
     0
  9
$DIMALTTZ
 70
     0
  9
$DIMUPT
 70
     0
  9
$DIMDEC
 70
     4
  9
$DIMTDEC
 70
     4
  9
$DIMALTU
 70
     2
  9
$DIMALTTD
 70
     2
  9
$DIMTXSTY
  7
Standard
  9
$DIMAUNIT
 70
     0
  9
$DIMADEC
 70
     0
  9
$DIMALTRND
 40
0.0
  9
$DIMAZIN
 70
     0
  9
$DIMDSEP
 70
    46
  9
$DIMATFIT
 70
     3
  9
$DIMFRAC
 70
     0
  9
$DIMLDRBLK
  1

  9
$DIMLUNIT
 70
     2
  9
$DIMLWD
 70
    -2
  9
$DIMLWE
 70
    -2
  9
$DIMTMOVE
 70
     0
  9
$DIMFXL
 40
1.0
  9
$DIMFXLON
 70
     0
  9
$DIMJOGANG
 40
0.7853981633974483
  9
$DIMTFILL
 70
     0
  9
$DIMTFILLCLR
 70
     0
  9
$DIMARCSYM
 70
     0
  9
$DIMLTYPE
  6

  9
$DIMLTEX1
  6

  9
$DIMLTEX2
  6

  9
$DIMTXTDIRECTION
 70
     0
  9
$LUNITS
 70
     2
  9
$LUPREC
 70
     4
  9
$SKETCHINC
 40
0.1
  9
$FILLETRAD
 40
0.5
  9
$AUNITS
 70
     0
  9
$AUPREC
 70
     0
  9
$MENU
  1
.
  9
$ELEVATION
 40
0.0
  9
$PELEVATION
 40
0.0
  9
$THICKNESS
 40
0.0
  9
$LIMCHECK
 70
     0
  9
$CHAMFERA
 40
0.5
  9
$CHAMFERB
 40
0.5
  9
$CHAMFERC
 40
1.0
  9
$CHAMFERD
 40
0.0
  9
$SKPOLY
 70
     0
  9
$TDCREATE
 40
2457159.131986887
  9
$TDUCREATE
 40
2457159.048653553
  9
$TDUPDATE
 40
2457159.131987338
  9
$TDUUPDATE
 40
2457159.048654004
  9
$TDINDWG
 40
0.0000000116
  9
$TDUSRTIMER
 40
0.0000000116
  9
$USRTIMER
 70
     1
  9
$ANGBASE
 50
0.0
  9
$ANGDIR
 70
     0
  9
$PDMODE
 70
     0
  9
$PDSIZE
 40
0.0
  9
$PLINEWID
 40
0.0
  9
$SPLFRAME
 70
     0
  9
$SPLINETYPE
 70
     6
  9
$SPLINESEGS
 70
     8
  9
$HANDSEED
  5
1CD
  9
$SURFTAB1
 70
     6
  9
$SURFTAB2
 70
     6
  9
$SURFTYPE
 70
     6
  9
$SURFU
 70
     6
  9
$SURFV
 70
     6
  9
$UCSBASE
  2

  9
$UCSNAME
  2

  9
$UCSORG
 10
0.0
 20
0.0
 30
0.0
  9
$UCSXDIR
 10
1.0
 20
0.0
 30
0.0
  9
$UCSYDIR
 10
0.0
 20
1.0
 30
0.0
  9
$UCSORTHOREF
  2

  9
$UCSORTHOVIEW
 70
     0
  9
$UCSORGTOP
 10
0.0
 20
0.0
 30
0.0
  9
$UCSORGBOTTOM
 10
0.0
 20
0.0
 30
0.0
  9
$UCSORGLEFT
 10
0.0
 20
0.0
 30
0.0
  9
$UCSORGRIGHT
 10
0.0
 20
0.0
 30
0.0
  9
$UCSORGFRONT
 10
0.0
 20
0.0
 30
0.0
  9
$UCSORGBACK
 10
0.0
 20
0.0
 30
0.0
  9
$PUCSBASE
  2

  9
$PUCSNAME
  2

  9
$PUCSORG
 10
0.0
 20
0.0
 30
0.0
  9
$PUCSXDIR
 10
1.0
 20
0.0
 30
0.0
  9
$PUCSYDIR
 10
0.0
 20
1.0
 30
0.0
  9
$PUCSORTHOREF
  2

  9
$PUCSORTHOVIEW
 70
     0
  9
$PUCSORGTOP
 10
0.0
 20
0.0
 30
0.0
  9
$PUCSORGBOTTOM
 10
0.0
 20
0.0
 30
0.0
  9
$PUCSORGLEFT
 10
0.0
 20
0.0
 30
0.0
  9
$PUCSORGRIGHT
 10
0.0
 20
0.0
 30
0.0
  9
$PUCSORGFRONT
 10
0.0
 20
0.0
 30
0.0
  9
$PUCSORGBACK
 10
0.0
 20
0.0
 30
0.0
  9
$USERI1
 70
     0
  9
$USERI2
 70
     0
  9
$USERI3
 70
     0
  9
$USERI4
 70
     0
  9
$USERI5
 70
     0
  9
$USERR1
 40
0.0
  9
$USERR2
 40
0.0
  9
$USERR3
 40
0.0
  9
$USERR4
 40
0.0
  9
$USERR5
 40
0.0
  9
$WORLDVIEW
 70
     1
  9
$SHADEDGE
 70
     3
  9
$SHADEDIF
 70
    70
  9
$TILEMODE
 70
     1
  9
$MAXACTVP
 70
    64
  9
$PINSBASE
 10
0.0
 20
0.0
 30
0.0
  9
$PLIMCHECK
 70
     0
  9
$PEXTMIN
 10
1.000000000000000E+20
 20
1.000000000000000E+20
 30
1.000000000000000E+20
  9
$PEXTMAX
 10
-1.000000000000000E+20
 20
-1.000000000000000E+20
 30
-1.000000000000000E+20
  9
$PLIMMIN
 10
0.0
 20
0.0
  9
$PLIMMAX
 10
12.0
 20
9.0
  9
$UNITMODE
 70
     0
  9
$VISRETAIN
 70
     1
  9
$PLINEGEN
 70
     0
  9
$PSLTSCALE
 70
     1
  9
$TREEDEPTH
 70
  3020
  9
$CMLSTYLE
  2
Standard
  9
$CMLJUST
 70
     0
  9
$CMLSCALE
 40
1.0
  9
$PROXYGRAPHICS
 70
     1
  9
$MEASUREMENT
 70
     0
  9
$CELWEIGHT
370
    -1
  9
$ENDCAPS
280
     0
  9
$JOINSTYLE
280
     0
  9
$LWDISPLAY
290
     1
  9
$INSUNITS
 70
     1
  9
$HYPERLINKBASE
  1

  9
$STYLESHEET
  1

  9
$XEDIT
290
     1
  9
$CEPSNTYPE
380
     0
  9
$PSTYLEMODE
290
     1
  9
$FINGERPRINTGUID
  2
{2A9C81D2-3D93-4AF4-B5E3-C6181AF95FBB}
  9
$VERSIONGUID
  2
{FAEB1C32-E019-11D5-929B-00C0DF256EC4}
  9
$EXTNAMES
290
     1
  9
$PSVPSCALE
 40
0.0
  9
$OLESTARTUP
290
     0
  9
$SORTENTS
280
   127
  9
$INDEXCTL
280
     0
  9
$HIDETEXT
280
     1
  9
$XCLIPFRAME
280
     2
  9
$HALOGAP
280
     0
  9
$OBSCOLOR
 70
   257
  9
$OBSLTYPE
280
     0
  9
$INTERSECTIONDISPLAY
280
     0
  9
$INTERSECTIONCOLOR
 70
   257
  9
$DIMASSOC
280
     2
  9
$PROJECTNAME
  1

  9
$CAMERADISPLAY
290
     0
  9
$LENSLENGTH
 40
50.0
  9
$CAMERAHEIGHT
 40
0.0
  9
$STEPSPERSEC
 40
2.0
  9
$STEPSIZE
 40
6.0
  9
$3DDWFPREC
 40
2.0
  9
$PSOLWIDTH
 40
0.25
  9
$PSOLHEIGHT
 40
4.0
  9
$LOFTANG1
 40
1.570796326794897
  9
$LOFTANG2
 40
1.570796326794897
  9
$LOFTMAG1
 40
0.0
  9
$LOFTMAG2
 40
0.0
  9
$LOFTPARAM
 70
     7
  9
$LOFTNORMALS
280
     1
  9
$LATITUDE
 40
37.795
  9
$LONGITUDE
 40
-122.394
  9
$NORTHDIRECTION
 40
0.0
  9
$TIMEZONE
 70
 -8000
  9
$LIGHTGLYPHDISPLAY
280
     1
  9
$TILEMODELIGHTSYNCH
280
     1
  9
$CMATERIAL
347
3C
  9
$SOLIDHIST
280
     1
  9
$SHOWHIST
280
     1
  9
$DWFFRAME
280
     2
  9
$DGNFRAME
280
     2
  9
$REALWORLDSCALE
290
     1
  9
$INTERFERECOLOR
 62
   256
  9
$CSHADOW
280
     0
  9
$SHADOWPLANELOCATION
 40
0.0
  0
ENDSEC
  0
SECTION
  2
CLASSES
  0
CLASS
  1
ACDBDICTIONARYWDFLT
  2
AcDbDictionaryWithDefault
  3
ObjectDBX Classes
 90
        0
 91
        4
280
     0
281
     0
  0
CLASS
  1
VISUALSTYLE
  2
AcDbVisualStyle
  3
ObjectDBX Classes
 90
     4095
 91
        4
280
     0
281
     0
  0
CLASS
  1
MATERIAL
  2
AcDbMaterial
  3
ObjectDBX Classes
 90
     1153
 91
        4
280
     0
281
     0
  0
CLASS
  1
SUN
  2
AcDbSun
  3
SCENEOE
 90
     1024
 91
        4
280
     0
281
     0
  0
ENDSEC
  0
SECTION
  2
TABLES
  0
TABLE
  2
VPORT
  5
8
330
0
100
AcDbSymbolTable
 70
     1
  0
VPORT
  5
29
330
8
100
AcDbSymbolTableRecord
100
AcDbViewportTableRecord
  2
*Active
 70
     0
 10
0.0
 20
0.0
 11
1.0
 21
1.0
 12
0.0
 22
0.0
 13
0.0
 23
0.0
 14
0.5
 24
0.5
 15
0.5
 25
0.5
 16
0.0
 26
0.0
 36
1.0
 17
640.0
 27
-400.0
 37
0.0
 40
800.0
 41
1.6
 42
50.0
 43
0.0
 44
0.0
 50
0.0
 51
0.0
 71
     0
 72
   100
 73
     1
 74
     3
 75
     0
 76
     0
 77
     0
 78
     0
281
     0
 65
     1
110
0.0
120
0.0
130
0.0
111
1.0
121
0.0
131
0.0
112
0.0
122
1.0
132
0.0
 79
     0
146
0.0
 60
     3
 61
     5
292
     1
282
     1
141
0.0
142
0.0
 63
   250
361
3F
  0
ENDTAB
  0
TABLE
  2
LTYPE
  5
5
330
0
100
AcDbSymbolTable
 70
     1
  0
LTYPE
  5
14
330
5
100
AcDbSymbolTableRecord
100
AcDbLinetypeTableRecord
  2
ByBlock
 70
     0
  3

 72
    65
 73
     0
 40
0.0
  0
LTYPE
  5
15
330
5
100
AcDbSymbolTableRecord
100
AcDbLinetypeTableRecord
  2
ByLayer
 70
     0
  3

 72
    65
 73
     0
 40
0.0
  0
LTYPE
  5
16
330
5
100
AcDbSymbolTableRecord
100
AcDbLinetypeTableRecord
  2
Continuous
 70
     0
  3
Solid line
 72
    65
 73
     0
 40
0.0
  0
ENDTAB
  0
TABLE
  2
LAYER
  5
2
330
0
100
AcDbSymbolTable
 70
     2
  0
LAYER
  5
10
330
2
100
AcDbSymbolTableRecord
100
AcDbLayerTableRecord
  2
0
 70
     0
 62
     7
  6
Continuous
370
    -3
390
F
347
3E
  0
LAYER
  5
40
330
2
100
AcDbSymbolTableRecord
100
AcDbLayerTableRecord
  2
Layer 1
 70
     0
 62
     7
  6
Continuous
370
    -3
390
F
347
3E
  0
ENDTAB
  0
TABLE
  2
STYLE
  5
3
330
0
100
AcDbSymbolTable
 70
     1
  0
STYLE
  5
11
330
3
100
AcDbSymbolTableRecord
100
AcDbTextStyleTableRecord
  2
Standard
 70
     0
 40
0.0
 41
1.0
 50
0.0
 71
     0
 42
0.2
  3
txt
  4

  0
ENDTAB
  0
TABLE
  2
VIEW
  5
6
330
0
100
AcDbSymbolTable
 70
     0
  0
ENDTAB
  0
TABLE
  2
UCS
  5
7
330
0
100
AcDbSymbolTable
 70
     0
  0
ENDTAB
  0
TABLE
  2
APPID
  5
9
330
0
100
AcDbSymbolTable
 70
     1
  0
APPID
  5
12
330
9
100
AcDbSymbolTableRecord
100
AcDbRegAppTableRecord
  2
ACAD
 70
     0
  0
ENDTAB
  0
TABLE
  2
DIMSTYLE
  5
A
330
0
100
AcDbSymbolTable
 70
     1
100
AcDbDimStyleTable
  0
DIMSTYLE
105
27
330
A
100
AcDbSymbolTableRecord
100
AcDbDimStyleTableRecord
  2
Standard
 70
     0
178
     0
340
11
  0
ENDTAB
  0
TABLE
  2
BLOCK_RECORD
  5
1
330
0
100
AcDbSymbolTable
 70
     3
  0
BLOCK_RECORD
  5
1F
330
1
100
AcDbSymbolTableRecord
100
AcDbBlockTableRecord
  2
*Model_Space
340
22
 70
     0
280
     1
281
     0
  0
BLOCK_RECORD
  5
1B
330
1
100
AcDbSymbolTableRecord
100
AcDbBlockTableRecord
  2
*Paper_Space
340
1E
 70
     0
280
     1
281
     0
  0
BLOCK_RECORD
  5
23
330
1
100
AcDbSymbolTableRecord
100
AcDbBlockTableRecord
  2
*Paper_Space0
340
26
 70
     0
280
     1
281
     0
  0
BLOCK_RECORD
  5
41
330
1
100
AcDbSymbolTableRecord
100
AcDbBlockTableRecord
  2
block 2
340
0
102
{BLKREFS
331
42
102
}
 70
     0
280
     1
281
     0
  0
BLOCK_RECORD
  5
1AD
330
1
100
AcDbSymbolTableRecord
100
AcDbBlockTableRecord
  2
block 3
340
0
102
{BLKREFS
331
1AE
102
}
 70
     0
280
     1
281
     0
  0
ENDTAB
  0
ENDSEC
  0
SECTION
  2
BLOCKS
  0
BLOCK
  5
20
330
1F
100
AcDbEntity
  8
0
100
AcDbBlockBegin
  2
*Model_Space
 70
     0
 10
0.0
 20
0.0
 30
0.0
  3
*Model_Space
  1

  0
ENDBLK
  5
21
330
1F
100
AcDbEntity
  8
0
100
AcDbBlockEnd
  0
BLOCK
  5
1C
330
1B
100
AcDbEntity
 67
     1
  8
0
100
AcDbBlockBegin
  2
*Paper_Space
 70
     0
 10
0.0
 20
0.0
 30
0.0
  3
*Paper_Space
  1

  0
ENDBLK
  5
1D
330
1B
100
AcDbEntity
 67
     1
  8
0
100
AcDbBlockEnd
  0
BLOCK
  5
24
330
23
100
AcDbEntity
  8
0
100
AcDbBlockBegin
  2
*Paper_Space0
 70
     0
 10
0.0
 20
0.0
 30
0.0
  3
*Paper_Space0
  1

  0
ENDBLK
  5
25
330
23
100
AcDbEntity
  8
0
100
AcDbBlockEnd
  0
BLOCK
  5
43
330
41
100
AcDbEntity
  8
0
100
AcDbBlockBegin
  2
block 2
 70
     0
 10
0.0
 20
0.0
 30
0.0
  3
block 2
  1

  0
POLYLINE
  5
45
330
41
100
AcDbEntity
  8
Layer 1
370
     0
100
AcDb2dPolyline
 66
     1
 10
0.0
 20
0.0
 30
0.0
  0
VERTEX
  5
46
330
45
100
AcDbEntity
  8
Layer 1
370
     0
100
AcDbVertex
100
AcDb2dVertex
 10
404.8212890625
 20
-149.693359375
 30
0.0
  0
VERTEX
  5
47
330
45
100
AcDbEntity
  8
Layer 1
370
     0
100
AcDbVertex
100
AcDb2dVertex
 10
401.80078125
 20
-149.693359375
 30
0.0
  0
VERTEX
  5
48
330
45
100
AcDbEntity
  8
Layer 1
370
     0
100
AcDbVertex
100
AcDb2dVertex
 10
401.80078125
 20
-122.474609375
 30
0.0
  0
VERTEX
  5
49
330
45
100
AcDbEntity
  8
Layer 1
370
     0
100
AcDbVertex
100
AcDb2dVertex
 10
365.6669921875
 20
-122.474609375
 30
0.0
  0
VERTEX
  5
4A
330
45
100
AcDbEntity
  8
Layer 1
370
     0
100
AcDbVertex
100
AcDb2dVertex
 10
365.6669921875
 20
-149.693359375
 30
0.0
  0
VERTEX
  5
4B
330
45
100
AcDbEntity
  8
Layer 1
370
     0
100
AcDbVertex
100
AcDb2dVertex
 10
362.68310546875
 20
-149.693359375
 30
0.0
  0
VERTEX
  5
4C
330
45
100
AcDbEntity
  8
Layer 1
370
     0
100
AcDbVertex
100
AcDb2dVertex
 10
362.68310546875
 20
-94.78271484375
 30
0.0
  0
VERTEX
  5
4D
330
45
100
AcDbEntity
  8
Layer 1
370
     0
100
AcDbVertex
100
AcDb2dVertex
 10
365.6669921875
 20
-94.78271484375
 30
0.0
  0
VERTEX
  5
4E
330
45
100
AcDbEntity
  8
Layer 1
370
     0
100
AcDbVertex
100
AcDb2dVertex
 10
365.6669921875
 20
-119.52734375
 30
0.0
  0
VERTEX
  5
4F
330
45
100
AcDbEntity
  8
Layer 1
370
     0
100
AcDbVertex
100
AcDb2dVertex
 10
401.80078125
 20
-119.52734375
 30
0.0
  0
VERTEX
  5
50
330
45
100
AcDbEntity
  8
Layer 1
370
     0
100
AcDbVertex
100
AcDb2dVertex
 10
401.80078125
 20
-94.78271484375
 30
0.0
  0
VERTEX
  5
51
330
45
100
AcDbEntity
  8
Layer 1
370
     0
100
AcDbVertex
100
AcDb2dVertex
 10
404.8212890625
 20
-94.78271484375
 30
0.0
  0
VERTEX
  5
52
330
45
100
AcDbEntity
  8
Layer 1
370
     0
100
AcDbVertex
100
AcDb2dVertex
 10
404.8212890625
 20
-149.693359375
 30
0.0
  0
SEQEND
  5
53
330
45
100
AcDbEntity
  8
Layer 1
370
     0
  0
HATCH
  5
54
330
41
100
AcDbEntity
  8
Layer 1
 62
     7
420
 16777215
100
AcDbHatch
 10
0.0
 20
0.0
 30
0.0
210
0.0
220
0.0
230
1.0
  2
SOLID
 70
     1
 71
     0
 91
        1
 92
        1
 93
       12
 72
     1
 10
404.8212890625
 20
-149.693359375
 11
401.80078125
 21
-149.693359375
 72
     1
 10
401.80078125
 20
-149.693359375
 11
401.80078125
 21
-122.474609375
 72
     1
 10
401.80078125
 20
-122.474609375
 11
365.6669921875
 21
-122.474609375
 72
     1
 10
365.6669921875
 20
-122.474609375
 11
365.6669921875
 21
-149.693359375
 72
     1
 10
365.6669921875
 20
-149.693359375
 11
362.68310546875
 21
-149.693359375
 72
     1
 10
362.68310546875
 20
-149.693359375
 11
362.68310546875
 21
-94.78271484375
 72
     1
 10
362.68310546875
 20
-94.78271484375
 11
365.6669921875
 21
-94.78271484375
 72
     1
 10
365.6669921875
 20
-94.78271484375
 11
365.6669921875
 21
-119.52734375
 72
     1
 10
365.6669921875
 20
-119.52734375
 11
401.80078125
 21
-119.52734375
 72
     1
 10
401.80078125
 20
-119.52734375
 11
401.80078125
 21
-94.78271484375
 72
     1
 10
401.80078125
 20
-94.78271484375
 11
404.8212890625
 21
-94.78271484375
 72
     1
 10
404.8212890625
 20
-94.78271484375
 11
404.8212890625
 21
-149.693359375
 97
        0
 75
     2
 76
     1
 98
        0
  0
POLYLINE
  5
55
330
41
100
AcDbEntity
  8
Layer 1
370
     0
100
AcDb2dPolyline
 66
     1
 10
0.0
 20
0.0
 30
0.0
  0
VERTEX
  5
56
330
55
100
AcDbEntity
  8
Layer 1
370
     0
100
AcDbVertex
100
AcDb2dVertex
 10
458.712890625
 20
-150.203125
 30
0.0
  0
VERTEX
  5
57
330
55
100
AcDbEntity
  8
Layer 1
370
     0
100
AcDbVertex
100
AcDb2dVertex
 10
422.39697265625
 20
-150.203125
 30
0.0
  0
VERTEX
  5
58
330
55
100
AcDbEntity
  8
Layer 1
370
     0
100
AcDbVertex
100
AcDb2dVertex
 10
422.39697265625
 20
-94.23681640625
 30
0.0
  0
VERTEX
  5
59
330
55
100
AcDbEntity
  8
Layer 1
370
     0
100
AcDbVertex
100
AcDb2dVertex
 10
458.712890625
 20
-94.23681640625
 30
0.0
  0
VERTEX
  5
5A
330
55
100
AcDbEntity
  8
Layer 1
370
     0
100
AcDbVertex
100
AcDb2dVertex
 10
458.712890625
 20
-97.14794921875
 30
0.0
  0
VERTEX
  5
5B
330
55
100
AcDbEntity
  8
Layer 1
370
     0
100
AcDbVertex
100
AcDb2dVertex
 10
425.380859375
 20
-97.14794921875
 30
0.0
  0
VERTEX
  5
5C
330
55
100
AcDbEntity
  8
Layer 1
370
     0
100
AcDbVertex
100
AcDb2dVertex
 10
425.380859375
 20
-119.52734375
 30
0.0
  0
VERTEX
  5
5D
330
55
100
AcDbEntity
  8
Layer 1
370
     0
100
AcDbVertex
100
AcDb2dVertex
 10
445.685546875
 20
-119.52734375
 30
0.0
  0
VERTEX
  5
5E
330
55
100
AcDbEntity
  8
Layer 1
370
     0
100
AcDbVertex
100
AcDb2dVertex
 10
445.685546875
 20
-122.474609375
 30
0.0
  0
VERTEX
  5
5F
330
55
100
AcDbEntity
  8
Layer 1
370
     0
100
AcDbVertex
100
AcDb2dVertex
 10
425.380859375
 20
-122.474609375
 30
0.0
  0
VERTEX
  5
60
330
55
100
AcDbEntity
  8
Layer 1
370
     0
100
AcDbVertex
100
AcDb2dVertex
 10
425.380859375
 20
-147.3642578125
 30
0.0
  0
VERTEX
  5
61
330
55
100
AcDbEntity
  8
Layer 1
370
     0
100
AcDbVertex
100
AcDb2dVertex
 10
458.712890625
 20
-147.3642578125
 30
0.0
  0
VERTEX
  5
62
330
55
100
AcDbEntity
  8
Layer 1
370
     0
100
AcDbVertex
100
AcDb2dVertex
 10
458.712890625
 20
-150.203125
 30
0.0
  0
SEQEND
  5
63
330
55
100
AcDbEntity
  8
Layer 1
370
     0
  0
HATCH
  5
64
330
41
100
AcDbEntity
  8
Layer 1
 62
     7
420
 16777215
100
AcDbHatch
 10
0.0
 20
0.0
 30
0.0
210
0.0
220
0.0
230
1.0
  2
SOLID
 70
     1
 71
     0
 91
        1
 92
        1
 93
       12
 72
     1
 10
458.712890625
 20
-150.203125
 11
422.39697265625
 21
-150.203125
 72
     1
 10
422.39697265625
 20
-150.203125
 11
422.39697265625
 21
-94.23681640625
 72
     1
 10
422.39697265625
 20
-94.23681640625
 11
458.712890625
 21
-94.23681640625
 72
     1
 10
458.712890625
 20
-94.23681640625
 11
458.712890625
 21
-97.14794921875
 72
     1
 10
458.712890625
 20
-97.14794921875
 11
425.380859375
 21
-97.14794921875
 72
     1
 10
425.380859375
 20
-97.14794921875
 11
425.380859375
 21
-119.52734375
 72
     1
 10
425.380859375
 20
-119.52734375
 11
445.685546875
 21
-119.52734375
 72
     1
 10
445.685546875
 20
-119.52734375
 11
445.685546875
 21
-122.474609375
 72
     1
 10
445.685546875
 20
-122.474609375
 11
425.380859375
 21
-122.474609375
 72
     1
 10
425.380859375
 20
-122.474609375
 11
425.380859375
 21
-147.3642578125
 72
     1
 10
425.380859375
 20
-147.3642578125
 11
458.712890625
 21
-147.3642578125
 72
     1
 10
458.712890625
 20
-147.3642578125
 11
458.712890625
 21
-150.203125
 97
        0
 75
     2
 76
     1
 98
        0
  0
POLYLINE
  5
65
330
41
100
AcDbEntity
  8
Layer 1
370
     0
100
AcDb2dPolyline
 66
     1
 10
0.0
 20
0.0
 30
0.0
  0
VERTEX
  5
66
330
65
100
AcDbEntity
  8
Layer 1
370
     0
100
AcDbVertex
100
AcDb2dVertex
 10
511.5498046875
 20
-148.8564453125
 30
0.0
  0
VERTEX
  5
67
330
65
100
AcDbEntity
  8
Layer 1
370
     0
100
AcDbVertex
100
AcDb2dVertex
 10
508.8935546875
 20
-150.166015625
 30
0.0
  0
VERTEX
  5
68
330
65
100
AcDbEntity
  8
Layer 1
370
     0
100
AcDbVertex
100
AcDb2dVertex
 10
491.46337890625
 20
-124.9130859375
 30
0.0
  0
VERTEX
  5
69
330
65
100
AcDbEntity
  8
Layer 1
370
     0
100
AcDbVertex
100
AcDb2dVertex
 10
473.99658203125
 20
-150.203125
 30
0.0
  0
VERTEX
  5
6A
330
65
100
AcDbEntity
  8
Layer 1
370
     0
100
AcDbVertex
100
AcDb2dVertex
 10
471.37646484375
 20
-148.8564453125
 30
0.0
  0
VERTEX
  5
6B
330
65
100
AcDbEntity
  8
Layer 1
370
     0
100
AcDbVertex
100
AcDb2dVertex
 10
489.607421875
 20
-122.29296875
 30
0.0
  0
VERTEX
  5
6C
330
65
100
AcDbEntity
  8
Layer 1
370
     0
100
AcDbVertex
100
AcDb2dVertex
 10
471.4130859375
 20
-95.72900390625
 30
0.0
  0
VERTEX
  5
6D
330
65
100
AcDbEntity
  8
Layer 1
370
     0
100
AcDbVertex
100
AcDb2dVertex
 10
473.99658203125
 20
-94.20068359375
 30
0.0
  0
VERTEX
  5
6E
330
65
100
AcDbEntity
  8
Layer 1
370
     0
100
AcDbVertex
100
AcDb2dVertex
 10
491.46337890625
 20
-119.599609375
 30
0.0
  0
VERTEX
  5
6F
330
65
100
AcDbEntity
  8
Layer 1
370
     0
100
AcDbVertex
100
AcDb2dVertex
 10
508.8935546875
 20
-94.20068359375
 30
0.0
  0
VERTEX
  5
70
330
65
100
AcDbEntity
  8
Layer 1
370
     0
100
AcDbVertex
100
AcDb2dVertex
 10
511.5498046875
 20
-95.6923828125
 30
0.0
  0
VERTEX
  5
71
330
65
100
AcDbEntity
  8
Layer 1
370
     0
100
AcDbVertex
100
AcDb2dVertex
 10
493.28271484375
 20
-122.29296875
 30
0.0
  0
VERTEX
  5
72
330
65
100
AcDbEntity
  8
Layer 1
370
     0
100
AcDbVertex
100
AcDb2dVertex
 10
511.5498046875
 20
-148.8564453125
 30
0.0
  0
SEQEND
  5
73
330
65
100
AcDbEntity
  8
Layer 1
370
     0
  0
HATCH
  5
74
330
41
100
AcDbEntity
  8
Layer 1
 62
     7
420
 16777215
100
AcDbHatch
 10
0.0
 20
0.0
 30
0.0
210
0.0
220
0.0
230
1.0
  2
SOLID
 70
     1
 71
     0
 91
        1
 92
        1
 93
       12
 72
     1
 10
511.5498046875
 20
-148.8564453125
 11
508.8935546875
 21
-150.166015625
 72
     1
 10
508.8935546875
 20
-150.166015625
 11
491.46337890625
 21
-124.9130859375
 72
     1
 10
491.46337890625
 20
-124.9130859375
 11
473.99658203125
 21
-150.203125
 72
     1
 10
473.99658203125
 20
-150.203125
 11
471.37646484375
 21
-148.8564453125
 72
     1
 10
471.37646484375
 20
-148.8564453125
 11
489.607421875
 21
-122.29296875
 72
     1
 10
489.607421875
 20
-122.29296875
 11
471.4130859375
 21
-95.72900390625
 72
     1
 10
471.4130859375
 20
-95.72900390625
 11
473.99658203125
 21
-94.20068359375
 72
     1
 10
473.99658203125
 20
-94.20068359375
 11
491.46337890625
 21
-119.599609375
 72
     1
 10
491.46337890625
 20
-119.599609375
 11
508.8935546875
 21
-94.20068359375
 72
     1
 10
508.8935546875
 20
-94.20068359375
 11
511.5498046875
 21
-95.6923828125
 72
     1
 10
511.5498046875
 20
-95.6923828125
 11
493.28271484375
 21
-122.29296875
 72
     1
 10
493.28271484375
 20
-122.29296875
 11
511.5498046875
 21
-148.8564453125
 97
        0
 75
     2
 76
     1
 98
        0
  0
POLYLINE
  5
75
330
41
100
AcDbEntity
  8
Layer 1
370
     0
100
AcDb2dPolyline
 66
     1
 10
0.0
 20
0.0
 30
0.0
  0
VERTEX
  5
76
330
75
100
AcDbEntity
  8
Layer 1
370
     0
100
AcDbVertex
100
AcDb2dVertex
 10
568.498046875
 20
-149.111328125
 30
0.0
  0
VERTEX
  5
77
330
75
100
AcDbEntity
  8
Layer 1
370
     0
100
AcDbVertex
100
AcDb2dVertex
 10
565.80517578125
 20
-150.09375
 30
0.0
  0
VERTEX
  5
78
330
75
100
AcDbEntity
  8
Layer 1
370
     0
100
AcDbVertex
100
AcDb2dVertex
 10
558.818359375
 20
-132.5546875
 30
0.0
  0
VERTEX
  5
79
330
75
100
AcDbEntity
  8
Layer 1
370
     0
100
AcDbVertex
100
AcDb2dVertex
 10
533.091796875
 20
-132.5546875
 30
0.0
  0
VERTEX
  5
7A
330
75
100
AcDbEntity
  8
Layer 1
370
     0
100
AcDbVertex
100
AcDb2dVertex
 10
526.10498046875
 20
-150.09375
 30
0.0
  0
VERTEX
  5
7B
330
75
100
AcDbEntity
  8
Layer 1
370
     0
100
AcDbVertex
100
AcDb2dVertex
 10
523.412109375
 20
-149.111328125
 30
0.0
  0
VERTEX
  5
7C
330
75
100
AcDbEntity
  8
Layer 1
370
     0
100
AcDbVertex
100
AcDb2dVertex
 10
544.95458984375
 20
-94.23681640625
 30
0.0
  0
VERTEX
  5
7D
330
75
100
AcDbEntity
  8
Layer 1
370
     0
100
AcDbVertex
100
AcDb2dVertex
 10
546.9921875
 20
-94.23681640625
 30
0.0
  0
VERTEX
  5
7E
330
75
100
AcDbEntity
  8
Layer 1
370
     0
100
AcDbVertex
100
AcDb2dVertex
 10
568.498046875
 20
-149.111328125
 30
0.0
  0
SEQEND
  5
7F
330
75
100
AcDbEntity
  8
Layer 1
370
     0
  0
POLYLINE
  5
80
330
41
100
AcDbEntity
  8
Layer 1
370
     0
100
AcDb2dPolyline
 66
     1
 10
0.0
 20
0.0
 30
0.0
  0
VERTEX
  5
81
330
80
100
AcDbEntity
  8
Layer 1
370
     0
100
AcDbVertex
100
AcDb2dVertex
 10
557.6904296875
 20
-129.6435546875
 30
0.0
  0
VERTEX
  5
82
330
80
100
AcDbEntity
  8
Layer 1
370
     0
100
AcDbVertex
100
AcDb2dVertex
 10
545.97314453125
 20
-99.76806640625
 30
0.0
  0
VERTEX
  5
83
330
80
100
AcDbEntity
  8
Layer 1
370
     0
100
AcDbVertex
100
AcDb2dVertex
 10
534.2197265625
 20
-129.6435546875
 30
0.0
  0
VERTEX
  5
84
330
80
100
AcDbEntity
  8
Layer 1
370
     0
100
AcDbVertex
100
AcDb2dVertex
 10
557.6904296875
 20
-129.6435546875
 30
0.0
  0
SEQEND
  5
85
330
80
100
AcDbEntity
  8
Layer 1
370
     0
  0
HATCH
  5
86
330
41
100
AcDbEntity
  8
Layer 1
 62
     7
420
 16777215
100
AcDbHatch
 10
0.0
 20
0.0
 30
0.0
210
0.0
220
0.0
230
1.0
  2
SOLID
 70
     1
 71
     0
 91
        2
 92
        1
 93
        8
 72
     1
 10
568.498046875
 20
-149.111328125
 11
565.80517578125
 21
-150.09375
 72
     1
 10
565.80517578125
 20
-150.09375
 11
558.818359375
 21
-132.5546875
 72
     1
 10
558.818359375
 20
-132.5546875
 11
533.091796875
 21
-132.5546875
 72
     1
 10
533.091796875
 20
-132.5546875
 11
526.10498046875
 21
-150.09375
 72
     1
 10
526.10498046875
 20
-150.09375
 11
523.412109375
 21
-149.111328125
 72
     1
 10
523.412109375
 20
-149.111328125
 11
544.95458984375
 21
-94.23681640625
 72
     1
 10
544.95458984375
 20
-94.23681640625
 11
546.9921875
 21
-94.23681640625
 72
     1
 10
546.9921875
 20
-94.23681640625
 11
568.498046875
 21
-149.111328125
 97
        0
 92
        1
 93
        3
 72
     1
 10
557.6904296875
 20
-129.6435546875
 11
545.97314453125
 21
-99.76806640625
 72
     1
 10
545.97314453125
 20
-99.76806640625
 11
534.2197265625
 21
-129.6435546875
 72
     1
 10
534.2197265625
 20
-129.6435546875
 11
557.6904296875
 21
-129.6435546875
 97
        0
 75
     2
 76
     1
 98
        0
  0
POLYLINE
  5
87
330
41
100
AcDbEntity
  8
Layer 1
370
     0
100
AcDb2dPolyline
 66
     1
 10
0.0
 20
0.0
 30
0.0
  0
VERTEX
  5
88
330
87
100
AcDbEntity
  8
Layer 1
370
     0
100
AcDbVertex
100
AcDb2dVertex
 10
622.86328125
 20
-149.693359375
 30
0.0
  0
VERTEX
  5
89
330
87
100
AcDbEntity
  8
Layer 1
370
     0
100
AcDbVertex
100
AcDb2dVertex
 10
619.8427734375
 20
-149.693359375
 30
0.0
  0
VERTEX
  5
8A
330
87
100
AcDbEntity
  8
Layer 1
370
     0
100
AcDbVertex
100
AcDb2dVertex
 10
619.8427734375
 20
-122.474609375
 30
0.0
  0
VERTEX
  5
8B
330
87
100
AcDbEntity
  8
Layer 1
370
     0
100
AcDbVertex
100
AcDb2dVertex
 10
583.708984375
 20
-122.474609375
 30
0.0
  0
VERTEX
  5
8C
330
87
100
AcDbEntity
  8
Layer 1
370
     0
100
AcDbVertex
100
AcDb2dVertex
 10
583.708984375
 20
-149.693359375
 30
0.0
  0
VERTEX
  5
8D
330
87
100
AcDbEntity
  8
Layer 1
370
     0
100
AcDbVertex
100
AcDb2dVertex
 10
580.72509765625
 20
-149.693359375
 30
0.0
  0
VERTEX
  5
8E
330
87
100
AcDbEntity
  8
Layer 1
370
     0
100
AcDbVertex
100
AcDb2dVertex
 10
580.72509765625
 20
-94.78271484375
 30
0.0
  0
VERTEX
  5
8F
330
87
100
AcDbEntity
  8
Layer 1
370
     0
100
AcDbVertex
100
AcDb2dVertex
 10
583.708984375
 20
-94.78271484375
 30
0.0
  0
VERTEX
  5
90
330
87
100
AcDbEntity
  8
Layer 1
370
     0
100
AcDbVertex
100
AcDb2dVertex
 10
583.708984375
 20
-119.52734375
 30
0.0
  0
VERTEX
  5
91
330
87
100
AcDbEntity
  8
Layer 1
370
     0
100
AcDbVertex
100
AcDb2dVertex
 10
619.8427734375
 20
-119.52734375
 30
0.0
  0
VERTEX
  5
92
330
87
100
AcDbEntity
  8
Layer 1
370
     0
100
AcDbVertex
100
AcDb2dVertex
 10
619.8427734375
 20
-94.78271484375
 30
0.0
  0
VERTEX
  5
93
330
87
100
AcDbEntity
  8
Layer 1
370
     0
100
AcDbVertex
100
AcDb2dVertex
 10
622.86328125
 20
-94.78271484375
 30
0.0
  0
VERTEX
  5
94
330
87
100
AcDbEntity
  8
Layer 1
370
     0
100
AcDbVertex
100
AcDb2dVertex
 10
622.86328125
 20
-149.693359375
 30
0.0
  0
SEQEND
  5
95
330
87
100
AcDbEntity
  8
Layer 1
370
     0
  0
HATCH
  5
96
330
41
100
AcDbEntity
  8
Layer 1
 62
     7
420
 16777215
100
AcDbHatch
 10
0.0
 20
0.0
 30
0.0
210
0.0
220
0.0
230
1.0
  2
SOLID
 70
     1
 71
     0
 91
        1
 92
        1
 93
       12
 72
     1
 10
622.86328125
 20
-149.693359375
 11
619.8427734375
 21
-149.693359375
 72
     1
 10
619.8427734375
 20
-149.693359375
 11
619.8427734375
 21
-122.474609375
 72
     1
 10
619.8427734375
 20
-122.474609375
 11
583.708984375
 21
-122.474609375
 72
     1
 10
583.708984375
 20
-122.474609375
 11
583.708984375
 21
-149.693359375
 72
     1
 10
583.708984375
 20
-149.693359375
 11
580.72509765625
 21
-149.693359375
 72
     1
 10
580.72509765625
 20
-149.693359375
 11
580.72509765625
 21
-94.78271484375
 72
     1
 10
580.72509765625
 20
-94.78271484375
 11
583.708984375
 21
-94.78271484375
 72
     1
 10
583.708984375
 20
-94.78271484375
 11
583.708984375
 21
-119.52734375
 72
     1
 10
583.708984375
 20
-119.52734375
 11
619.8427734375
 21
-119.52734375
 72
     1
 10
619.8427734375
 20
-119.52734375
 11
619.8427734375
 21
-94.78271484375
 72
     1
 10
619.8427734375
 20
-94.78271484375
 11
622.86328125
 21
-94.78271484375
 72
     1
 10
622.86328125
 20
-94.78271484375
 11
622.86328125
 21
-149.693359375
 97
        0
 75
     2
 76
     1
 98
        0
  0
POLYLINE
  5
97
330
41
100
AcDbEntity
  8
Layer 1
370
     0
100
AcDb2dPolyline
 66
     1
 10
0.0
 20
0.0
 30
0.0
  0
VERTEX
  5
98
330
97
100
AcDbEntity
  8
Layer 1
370
     0
100
AcDbVertex
100
AcDb2dVertex
 10
685.37890625
 20
-95.947265625
 30
0.0
  0
VERTEX
  5
99
330
97
100
AcDbEntity
  8
Layer 1
370
     0
100
AcDbVertex
100
AcDb2dVertex
 10
664.3095703125
 20
-121.5283203125
 30
0.0
  0
VERTEX
  5
9A
330
97
100
AcDbEntity
  8
Layer 1
370
     0
100
AcDbVertex
100
AcDb2dVertex
 10
664.3095703125
 20
-149.693359375
 30
0.0
  0
VERTEX
  5
9B
330
97
100
AcDbEntity
  8
Layer 1
370
     0
100
AcDbVertex
100
AcDb2dVertex
 10
661.2890625
 20
-149.693359375
 30
0.0
  0
VERTEX
  5
9C
330
97
100
AcDbEntity
  8
Layer 1
370
     0
100
AcDbVertex
100
AcDb2dVertex
 10
661.2890625
 20
-121.5283203125
 30
0.0
  0
VERTEX
  5
9D
330
97
100
AcDbEntity
  8
Layer 1
370
     0
100
AcDbVertex
100
AcDb2dVertex
 10
640.2568359375
 20
-95.947265625
 30
0.0
  0
VERTEX
  5
9E
330
97
100
AcDbEntity
  8
Layer 1
370
     0
100
AcDbVertex
100
AcDb2dVertex
 10
642.513671875
 20
-94.0546875
 30
0.0
  0
VERTEX
  5
9F
330
97
100
AcDbEntity
  8
Layer 1
370
     0
100
AcDbVertex
100
AcDb2dVertex
 10
662.818359375
 20
-118.6533203125
 30
0.0
  0
VERTEX
  5
A0
330
97
100
AcDbEntity
  8
Layer 1
370
     0
100
AcDbVertex
100
AcDb2dVertex
 10
683.123046875
 20
-94.0546875
 30
0.0
  0
VERTEX
  5
A1
330
97
100
AcDbEntity
  8
Layer 1
370
     0
100
AcDbVertex
100
AcDb2dVertex
 10
685.37890625
 20
-95.947265625
 30
0.0
  0
SEQEND
  5
A2
330
97
100
AcDbEntity
  8
Layer 1
370
     0
  0
HATCH
  5
A3
330
41
100
AcDbEntity
  8
Layer 1
 62
     7
420
 16777215
100
AcDbHatch
 10
0.0
 20
0.0
 30
0.0
210
0.0
220
0.0
230
1.0
  2
SOLID
 70
     1
 71
     0
 91
        1
 92
        1
 93
        9
 72
     1
 10
685.37890625
 20
-95.947265625
 11
664.3095703125
 21
-121.5283203125
 72
     1
 10
664.3095703125
 20
-121.5283203125
 11
664.3095703125
 21
-149.693359375
 72
     1
 10
664.3095703125
 20
-149.693359375
 11
661.2890625
 21
-149.693359375
 72
     1
 10
661.2890625
 20
-149.693359375
 11
661.2890625
 21
-121.5283203125
 72
     1
 10
661.2890625
 20
-121.5283203125
 11
640.2568359375
 21
-95.947265625
 72
     1
 10
640.2568359375
 20
-95.947265625
 11
642.513671875
 21
-94.0546875
 72
     1
 10
642.513671875
 20
-94.0546875
 11
662.818359375
 21
-118.6533203125
 72
     1
 10
662.818359375
 20
-118.6533203125
 11
683.123046875
 21
-94.0546875
 72
     1
 10
683.123046875
 20
-94.0546875
 11
685.37890625
 21
-95.947265625
 97
        0
 75
     2
 76
     1
 98
        0
  0
POLYLINE
  5
A4
330
41
100
AcDbEntity
  8
Layer 1
370
     0
100
AcDb2dPolyline
 66
     1
 10
0.0
 20
0.0
 30
0.0
  0
VERTEX
  5
A5
330
A4
100
AcDbEntity
  8
Layer 1
370
     0
100
AcDbVertex
100
AcDb2dVertex
 10
731.8837890625
 20
-128.806640625
 30
0.0
  0
VERTEX
  5
A6
330
A4
100
AcDbEntity
  8
Layer 1
370
     0
100
AcDbVertex
100
AcDb2dVertex
 10
729.1181640625
 20
-136.7021484375
 30
0.0
  0
VERTEX
  5
A7
330
A4
100
AcDbEntity
  8
Layer 1
370
     0
100
AcDbVertex
100
AcDb2dVertex
 10
726.4619140625
 20
-142.125
 30
0.0
  0
VERTEX
  5
A8
330
A4
100
AcDbEntity
  8
Layer 1
370
     0
100
AcDbVertex
100
AcDb2dVertex
 10
720.712890625
 20
-147.5830078125
 30
0.0
  0
VERTEX
  5
A9
330
A4
100
AcDbEntity
  8
Layer 1
370
     0
100
AcDbVertex
100
AcDb2dVertex
 10
712.3427734375
 20
-150.203125
 30
0.0
  0
VERTEX
  5
AA
330
A4
100
AcDbEntity
  8
Layer 1
370
     0
100
AcDbVertex
100
AcDb2dVertex
 10
692.365234375
 20
-150.203125
 30
0.0
  0
VERTEX
  5
AB
330
A4
100
AcDbEntity
  8
Layer 1
370
     0
100
AcDbVertex
100
AcDb2dVertex
 10
692.365234375
 20
-94.23681640625
 30
0.0
  0
VERTEX
  5
AC
330
A4
100
AcDbEntity
  8
Layer 1
370
     0
100
AcDbVertex
100
AcDb2dVertex
 10
712.3427734375
 20
-94.23681640625
 30
0.0
  0
VERTEX
  5
AD
330
A4
100
AcDbEntity
  8
Layer 1
370
     0
100
AcDbVertex
100
AcDb2dVertex
 10
720.712890625
 20
-96.9658203125
 30
0.0
  0
VERTEX
  5
AE
330
A4
100
AcDbEntity
  8
Layer 1
370
     0
100
AcDbVertex
100
AcDb2dVertex
 10
726.4619140625
 20
-102.38818359375
 30
0.0
  0
VERTEX
  5
AF
330
A4
100
AcDbEntity
  8
Layer 1
370
     0
100
AcDbVertex
100
AcDb2dVertex
 10
729.1181640625
 20
-107.81005859375
 30
0.0
  0
VERTEX
  5
B0
330
A4
100
AcDbEntity
  8
Layer 1
370
     0
100
AcDbVertex
100
AcDb2dVertex
 10
731.8837890625
 20
-115.7421875
 30
0.0
  0
VERTEX
  5
B1
330
A4
100
AcDbEntity
  8
Layer 1
370
     0
100
AcDbVertex
100
AcDb2dVertex
 10
731.8837890625
 20
-128.806640625
 30
0.0
  0
SEQEND
  5
B2
330
A4
100
AcDbEntity
  8
Layer 1
370
     0
  0
POLYLINE
  5
B3
330
41
100
AcDbEntity
  8
Layer 1
370
     0
100
AcDb2dPolyline
 66
     1
 10
0.0
 20
0.0
 30
0.0
  0
VERTEX
  5
B4
330
B3
100
AcDbEntity
  8
Layer 1
370
     0
100
AcDbVertex
100
AcDb2dVertex
 10
728.86328125
 20
-128.369140625
 30
0.0
  0
VERTEX
  5
B5
330
B3
100
AcDbEntity
  8
Layer 1
370
     0
100
AcDbVertex
100
AcDb2dVertex
 10
728.86328125
 20
-116.142578125
 30
0.0
  0
VERTEX
  5
B6
330
B3
100
AcDbEntity
  8
Layer 1
370
     0
100
AcDbVertex
100
AcDb2dVertex
 10
726.42578125
 20
-108.9013671875
 30
0.0
  0
VERTEX
  5
B7
330
B3
100
AcDbEntity
  8
Layer 1
370
     0
100
AcDbVertex
100
AcDb2dVertex
 10
723.9150390625
 20
-104.1708984375
 30
0.0
  0
VERTEX
  5
B8
330
B3
100
AcDbEntity
  8
Layer 1
370
     0
100
AcDbVertex
100
AcDb2dVertex
 10
719.1474609375
 20
-99.47705078125
 30
0.0
  0
VERTEX
  5
B9
330
B3
100
AcDbEntity
  8
Layer 1
370
     0
100
AcDbVertex
100
AcDb2dVertex
 10
711.90625
 20
-97.14794921875
 30
0.0
  0
VERTEX
  5
BA
330
B3
100
AcDbEntity
  8
Layer 1
370
     0
100
AcDbVertex
100
AcDb2dVertex
 10
695.349609375
 20
-97.14794921875
 30
0.0
  0
VERTEX
  5
BB
330
B3
100
AcDbEntity
  8
Layer 1
370
     0
100
AcDbVertex
100
AcDb2dVertex
 10
695.349609375
 20
-147.3642578125
 30
0.0
  0
VERTEX
  5
BC
330
B3
100
AcDbEntity
  8
Layer 1
370
     0
100
AcDbVertex
100
AcDb2dVertex
 10
711.90625
 20
-147.3642578125
 30
0.0
  0
VERTEX
  5
BD
330
B3
100
AcDbEntity
  8
Layer 1
370
     0
100
AcDbVertex
100
AcDb2dVertex
 10
719.1474609375
 20
-145.03515625
 30
0.0
  0
VERTEX
  5
BE
330
B3
100
AcDbEntity
  8
Layer 1
370
     0
100
AcDbVertex
100
AcDb2dVertex
 10
723.9150390625
 20
-140.341796875
 30
0.0
  0
VERTEX
  5
BF
330
B3
100
AcDbEntity
  8
Layer 1
370
     0
100
AcDbVertex
100
AcDb2dVertex
 10
726.42578125
 20
-135.611328125
 30
0.0
  0
VERTEX
  5
C0
330
B3
100
AcDbEntity
  8
Layer 1
370
     0
100
AcDbVertex
100
AcDb2dVertex
 10
728.86328125
 20
-128.369140625
 30
0.0
  0
SEQEND
  5
C1
330
B3
100
AcDbEntity
  8
Layer 1
370
     0
  0
HATCH
  5
C2
330
41
100
AcDbEntity
  8
Layer 1
 62
     7
420
 16777215
100
AcDbHatch
 10
0.0
 20
0.0
 30
0.0
210
0.0
220
0.0
230
1.0
  2
SOLID
 70
     1
 71
     0
 91
        2
 92
        1
 93
       12
 72
     1
 10
731.8837890625
 20
-128.806640625
 11
729.1181640625
 21
-136.7021484375
 72
     1
 10
729.1181640625
 20
-136.7021484375
 11
726.4619140625
 21
-142.125
 72
     1
 10
726.4619140625
 20
-142.125
 11
720.712890625
 21
-147.5830078125
 72
     1
 10
720.712890625
 20
-147.5830078125
 11
712.3427734375
 21
-150.203125
 72
     1
 10
712.3427734375
 20
-150.203125
 11
692.365234375
 21
-150.203125
 72
     1
 10
692.365234375
 20
-150.203125
 11
692.365234375
 21
-94.23681640625
 72
     1
 10
692.365234375
 20
-94.23681640625
 11
712.3427734375
 21
-94.23681640625
 72
     1
 10
712.3427734375
 20
-94.23681640625
 11
720.712890625
 21
-96.9658203125
 72
     1
 10
720.712890625
 20
-96.9658203125
 11
726.4619140625
 21
-102.38818359375
 72
     1
 10
726.4619140625
 20
-102.38818359375
 11
729.1181640625
 21
-107.81005859375
 72
     1
 10
729.1181640625
 20
-107.81005859375
 11
731.8837890625
 21
-115.7421875
 72
     1
 10
731.8837890625
 20
-115.7421875
 11
731.8837890625
 21
-128.806640625
 97
        0
 92
        1
 93
       12
 72
     1
 10
728.86328125
 20
-128.369140625
 11
728.86328125
 21
-116.142578125
 72
     1
 10
728.86328125
 20
-116.142578125
 11
726.42578125
 21
-108.9013671875
 72
     1
 10
726.42578125
 20
-108.9013671875
 11
723.9150390625
 21
-104.1708984375
 72
     1
 10
723.9150390625
 20
-104.1708984375
 11
719.1474609375
 21
-99.47705078125
 72
     1
 10
719.1474609375
 20
-99.47705078125
 11
711.90625
 21
-97.14794921875
 72
     1
 10
711.90625
 20
-97.14794921875
 11
695.349609375
 21
-97.14794921875
 72
     1
 10
695.349609375
 20
-97.14794921875
 11
695.349609375
 21
-147.3642578125
 72
     1
 10
695.349609375
 20
-147.3642578125
 11
711.90625
 21
-147.3642578125
 72
     1
 10
711.90625
 20
-147.3642578125
 11
719.1474609375
 21
-145.03515625
 72
     1
 10
719.1474609375
 20
-145.03515625
 11
723.9150390625
 21
-140.341796875
 72
     1
 10
723.9150390625
 20
-140.341796875
 11
726.42578125
 21
-135.611328125
 72
     1
 10
726.42578125
 20
-135.611328125
 11
728.86328125
 21
-128.369140625
 97
        0
 75
     2
 76
     1
 98
        0
  0
POLYLINE
  5
C3
330
41
100
AcDbEntity
  8
Layer 1
370
     0
100
AcDb2dPolyline
 66
     1
 10
0.0
 20
0.0
 30
0.0
  0
VERTEX
  5
C4
330
C3
100
AcDbEntity
  8
Layer 1
370
     0
100
AcDbVertex
100
AcDb2dVertex
 10
786.39453125
 20
-111.23046875
 30
0.0
  0
VERTEX
  5
C5
330
C3
100
AcDbEntity
  8
Layer 1
370
     0
100
AcDbVertex
100
AcDb2dVertex
 10
783.51953125
 20
-116.833984375
 30
0.0
  0
VERTEX
  5
C6
330
C3
100
AcDbEntity
  8
Layer 1
370
     0
100
AcDbVertex
100
AcDb2dVertex
 10
780.4267578125
 20
-119.7451171875
 30
0.0
  0
VERTEX
  5
C7
330
C3
100
AcDbEntity
  8
Layer 1
370
     0
100
AcDbVertex
100
AcDb2dVertex
 10
772.0576171875
 20
-122.474609375
 30
0.0
  0
VERTEX
  5
C8
330
C3
100
AcDbEntity
  8
Layer 1
370
     0
100
AcDbVertex
100
AcDb2dVertex
 10
769.4375
 20
-122.474609375
 30
0.0
  0
VERTEX
  5
C9
330
C3
100
AcDbEntity
  8
Layer 1
370
     0
100
AcDbVertex
100
AcDb2dVertex
 10
786.7216796875
 20
-148.8564453125
 30
0.0
  0
VERTEX
  5
CA
330
C3
100
AcDbEntity
  8
Layer 1
370
     0
100
AcDbVertex
100
AcDb2dVertex
 10
784.029296875
 20
-150.203125
 30
0.0
  0
VERTEX
  5
CB
330
C3
100
AcDbEntity
  8
Layer 1
370
     0
100
AcDbVertex
100
AcDb2dVertex
 10
765.8349609375
 20
-122.474609375
 30
0.0
  0
VERTEX
  5
CC
330
C3
100
AcDbEntity
  8
Layer 1
370
     0
100
AcDbVertex
100
AcDb2dVertex
 10
749.8603515625
 20
-122.474609375
 30
0.0
  0
VERTEX
  5
CD
330
C3
100
AcDbEntity
  8
Layer 1
370
     0
100
AcDbVertex
100
AcDb2dVertex
 10
749.8603515625
 20
-149.693359375
 30
0.0
  0
VERTEX
  5
CE
330
C3
100
AcDbEntity
  8
Layer 1
370
     0
100
AcDbVertex
100
AcDb2dVertex
 10
746.8759765625
 20
-149.693359375
 30
0.0
  0
VERTEX
  5
CF
330
C3
100
AcDbEntity
  8
Layer 1
370
     0
100
AcDbVertex
100
AcDb2dVertex
 10
746.8759765625
 20
-94.23681640625
 30
0.0
  0
VERTEX
  5
D0
330
C3
100
AcDbEntity
  8
Layer 1
370
     0
100
AcDbVertex
100
AcDb2dVertex
 10
772.0576171875
 20
-94.23681640625
 30
0.0
  0
VERTEX
  5
D1
330
C3
100
AcDbEntity
  8
Layer 1
370
     0
100
AcDbVertex
100
AcDb2dVertex
 10
780.4267578125
 20
-96.9658203125
 30
0.0
  0
VERTEX
  5
D2
330
C3
100
AcDbEntity
  8
Layer 1
370
     0
100
AcDbVertex
100
AcDb2dVertex
 10
783.51953125
 20
-99.8408203125
 30
0.0
  0
VERTEX
  5
D3
330
C3
100
AcDbEntity
  8
Layer 1
370
     0
100
AcDbVertex
100
AcDb2dVertex
 10
786.39453125
 20
-105.48095703125
 30
0.0
  0
VERTEX
  5
D4
330
C3
100
AcDbEntity
  8
Layer 1
370
     0
100
AcDbVertex
100
AcDb2dVertex
 10
786.39453125
 20
-111.23046875
 30
0.0
  0
SEQEND
  5
D5
330
C3
100
AcDbEntity
  8
Layer 1
370
     0
  0
POLYLINE
  5
D6
330
41
100
AcDbEntity
  8
Layer 1
370
     0
100
AcDb2dPolyline
 66
     1
 10
0.0
 20
0.0
 30
0.0
  0
VERTEX
  5
D7
330
D6
100
AcDbEntity
  8
Layer 1
370
     0
100
AcDbVertex
100
AcDb2dVertex
 10
783.3740234375
 20
-110.50244140625
 30
0.0
  0
VERTEX
  5
D8
330
D6
100
AcDbEntity
  8
Layer 1
370
     0
100
AcDbVertex
100
AcDb2dVertex
 10
783.3740234375
 20
-106.17236328125
 30
0.0
  0
VERTEX
  5
D9
330
D6
100
AcDbEntity
  8
Layer 1
370
     0
100
AcDbVertex
100
AcDb2dVertex
 10
781.0087890625
 20
-101.6240234375
 30
0.0
  0
VERTEX
  5
DA
330
D6
100
AcDbEntity
  8
Layer 1
370
     0
100
AcDbVertex
100
AcDb2dVertex
 10
778.8623046875
 20
-99.47705078125
 30
0.0
  0
VERTEX
  5
DB
330
D6
100
AcDbEntity
  8
Layer 1
370
     0
100
AcDbVertex
100
AcDb2dVertex
 10
771.62109375
 20
-97.14794921875
 30
0.0
  0
VERTEX
  5
DC
330
D6
100
AcDbEntity
  8
Layer 1
370
     0
100
AcDbVertex
100
AcDb2dVertex
 10
749.8603515625
 20
-97.14794921875
 30
0.0
  0
VERTEX
  5
DD
330
D6
100
AcDbEntity
  8
Layer 1
370
     0
100
AcDbVertex
100
AcDb2dVertex
 10
749.8603515625
 20
-119.52734375
 30
0.0
  0
VERTEX
  5
DE
330
D6
100
AcDbEntity
  8
Layer 1
370
     0
100
AcDbVertex
100
AcDb2dVertex
 10
771.62109375
 20
-119.52734375
 30
0.0
  0
VERTEX
  5
DF
330
D6
100
AcDbEntity
  8
Layer 1
370
     0
100
AcDbVertex
100
AcDb2dVertex
 10
778.8623046875
 20
-117.1982421875
 30
0.0
  0
VERTEX
  5
E0
330
D6
100
AcDbEntity
  8
Layer 1
370
     0
100
AcDbVertex
100
AcDb2dVertex
 10
781.0087890625
 20
-115.05078125
 30
0.0
  0
VERTEX
  5
E1
330
D6
100
AcDbEntity
  8
Layer 1
370
     0
100
AcDbVertex
100
AcDb2dVertex
 10
783.3740234375
 20
-110.50244140625
 30
0.0
  0
SEQEND
  5
E2
330
D6
100
AcDbEntity
  8
Layer 1
370
     0
  0
HATCH
  5
E3
330
41
100
AcDbEntity
  8
Layer 1
 62
     7
420
 16777215
100
AcDbHatch
 10
0.0
 20
0.0
 30
0.0
210
0.0
220
0.0
230
1.0
  2
SOLID
 70
     1
 71
     0
 91
        2
 92
        1
 93
       16
 72
     1
 10
786.39453125
 20
-111.23046875
 11
783.51953125
 21
-116.833984375
 72
     1
 10
783.51953125
 20
-116.833984375
 11
780.4267578125
 21
-119.7451171875
 72
     1
 10
780.4267578125
 20
-119.7451171875
 11
772.0576171875
 21
-122.474609375
 72
     1
 10
772.0576171875
 20
-122.474609375
 11
769.4375
 21
-122.474609375
 72
     1
 10
769.4375
 20
-122.474609375
 11
786.7216796875
 21
-148.8564453125
 72
     1
 10
786.7216796875
 20
-148.8564453125
 11
784.029296875
 21
-150.203125
 72
     1
 10
784.029296875
 20
-150.203125
 11
765.8349609375
 21
-122.474609375
 72
     1
 10
765.8349609375
 20
-122.474609375
 11
749.8603515625
 21
-122.474609375
 72
     1
 10
749.8603515625
 20
-122.474609375
 11
749.8603515625
 21
-149.693359375
 72
     1
 10
749.8603515625
 20
-149.693359375
 11
746.8759765625
 21
-149.693359375
 72
     1
 10
746.8759765625
 20
-149.693359375
 11
746.8759765625
 21
-94.23681640625
 72
     1
 10
746.8759765625
 20
-94.23681640625
 11
772.0576171875
 21
-94.23681640625
 72
     1
 10
772.0576171875
 20
-94.23681640625
 11
780.4267578125
 21
-96.9658203125
 72
     1
 10
780.4267578125
 20
-96.9658203125
 11
783.51953125
 21
-99.8408203125
 72
     1
 10
783.51953125
 20
-99.8408203125
 11
786.39453125
 21
-105.48095703125
 72
     1
 10
786.39453125
 20
-105.48095703125
 11
786.39453125
 21
-111.23046875
 97
        0
 92
        1
 93
       10
 72
     1
 10
783.3740234375
 20
-110.50244140625
 11
783.3740234375
 21
-106.17236328125
 72
     1
 10
783.3740234375
 20
-106.17236328125
 11
781.0087890625
 21
-101.6240234375
 72
     1
 10
781.0087890625
 20
-101.6240234375
 11
778.8623046875
 21
-99.47705078125
 72
     1
 10
778.8623046875
 20
-99.47705078125
 11
771.62109375
 21
-97.14794921875
 72
     1
 10
771.62109375
 20
-97.14794921875
 11
749.8603515625
 21
-97.14794921875
 72
     1
 10
749.8603515625
 20
-97.14794921875
 11
749.8603515625
 21
-119.52734375
 72
     1
 10
749.8603515625
 20
-119.52734375
 11
771.62109375
 21
-119.52734375
 72
     1
 10
771.62109375
 20
-119.52734375
 11
778.8623046875
 21
-117.1982421875
 72
     1
 10
778.8623046875
 20
-117.1982421875
 11
781.0087890625
 21
-115.05078125
 72
     1
 10
781.0087890625
 20
-115.05078125
 11
783.3740234375
 21
-110.50244140625
 97
        0
 75
     2
 76
     1
 98
        0
  0
POLYLINE
  5
E4
330
41
100
AcDbEntity
  8
Layer 1
370
     0
100
AcDb2dPolyline
 66
     1
 10
0.0
 20
0.0
 30
0.0
  0
VERTEX
  5
E5
330
E4
100
AcDbEntity
  8
Layer 1
370
     0
100
AcDbVertex
100
AcDb2dVertex
 10
843.5244140625
 20
-128.806640625
 30
0.0
  0
VERTEX
  5
E6
330
E4
100
AcDbEntity
  8
Layer 1
370
     0
100
AcDbVertex
100
AcDb2dVertex
 10
840.7587890625
 20
-136.7021484375
 30
0.0
  0
VERTEX
  5
E7
330
E4
100
AcDbEntity
  8
Layer 1
370
     0
100
AcDbVertex
100
AcDb2dVertex
 10
838.06640625
 20
-142.125
 30
0.0
  0
VERTEX
  5
E8
330
E4
100
AcDbEntity
  8
Layer 1
370
     0
100
AcDbVertex
100
AcDb2dVertex
 10
832.4990234375
 20
-147.509765625
 30
0.0
  0
VERTEX
  5
E9
330
E4
100
AcDbEntity
  8
Layer 1
370
     0
100
AcDbVertex
100
AcDb2dVertex
 10
826.712890625
 20
-150.203125
 30
0.0
  0
VERTEX
  5
EA
330
E4
100
AcDbEntity
  8
Layer 1
370
     0
100
AcDbVertex
100
AcDb2dVertex
 10
815.541015625
 20
-150.203125
 30
0.0
  0
VERTEX
  5
EB
330
E4
100
AcDbEntity
  8
Layer 1
370
     0
100
AcDbVertex
100
AcDb2dVertex
 10
809.7919921875
 20
-147.509765625
 30
0.0
  0
VERTEX
  5
EC
330
E4
100
AcDbEntity
  8
Layer 1
370
     0
100
AcDbVertex
100
AcDb2dVertex
 10
804.1884765625
 20
-142.125
 30
0.0
  0
VERTEX
  5
ED
330
E4
100
AcDbEntity
  8
Layer 1
370
     0
100
AcDbVertex
100
AcDb2dVertex
 10
801.53125
 20
-136.7021484375
 30
0.0
  0
VERTEX
  5
EE
330
E4
100
AcDbEntity
  8
Layer 1
370
     0
100
AcDbVertex
100
AcDb2dVertex
 10
798.7666015625
 20
-128.806640625
 30
0.0
  0
VERTEX
  5
EF
330
E4
100
AcDbEntity
  8
Layer 1
370
     0
100
AcDbVertex
100
AcDb2dVertex
 10
798.7666015625
 20
-115.7421875
 30
0.0
  0
VERTEX
  5
F0
330
E4
100
AcDbEntity
  8
Layer 1
370
     0
100
AcDbVertex
100
AcDb2dVertex
 10
801.53125
 20
-107.81005859375
 30
0.0
  0
VERTEX
  5
F1
330
E4
100
AcDbEntity
  8
Layer 1
370
     0
100
AcDbVertex
100
AcDb2dVertex
 10
804.1884765625
 20
-102.38818359375
 30
0.0
  0
VERTEX
  5
F2
330
E4
100
AcDbEntity
  8
Layer 1
370
     0
100
AcDbVertex
100
AcDb2dVertex
 10
809.7919921875
 20
-97.00244140625
 30
0.0
  0
VERTEX
  5
F3
330
E4
100
AcDbEntity
  8
Layer 1
370
     0
100
AcDbVertex
100
AcDb2dVertex
 10
815.541015625
 20
-94.23681640625
 30
0.0
  0
VERTEX
  5
F4
330
E4
100
AcDbEntity
  8
Layer 1
370
     0
100
AcDbVertex
100
AcDb2dVertex
 10
826.712890625
 20
-94.23681640625
 30
0.0
  0
VERTEX
  5
F5
330
E4
100
AcDbEntity
  8
Layer 1
370
     0
100
AcDbVertex
100
AcDb2dVertex
 10
832.4990234375
 20
-97.00244140625
 30
0.0
  0
VERTEX
  5
F6
330
E4
100
AcDbEntity
  8
Layer 1
370
     0
100
AcDbVertex
100
AcDb2dVertex
 10
838.06640625
 20
-102.38818359375
 30
0.0
  0
VERTEX
  5
F7
330
E4
100
AcDbEntity
  8
Layer 1
370
     0
100
AcDbVertex
100
AcDb2dVertex
 10
840.7587890625
 20
-107.81005859375
 30
0.0
  0
VERTEX
  5
F8
330
E4
100
AcDbEntity
  8
Layer 1
370
     0
100
AcDbVertex
100
AcDb2dVertex
 10
843.5244140625
 20
-115.7421875
 30
0.0
  0
VERTEX
  5
F9
330
E4
100
AcDbEntity
  8
Layer 1
370
     0
100
AcDbVertex
100
AcDb2dVertex
 10
843.5244140625
 20
-128.806640625
 30
0.0
  0
SEQEND
  5
FA
330
E4
100
AcDbEntity
  8
Layer 1
370
     0
  0
POLYLINE
  5
FB
330
41
100
AcDbEntity
  8
Layer 1
370
     0
100
AcDb2dPolyline
 66
     1
 10
0.0
 20
0.0
 30
0.0
  0
VERTEX
  5
FC
330
FB
100
AcDbEntity
  8
Layer 1
370
     0
100
AcDbVertex
100
AcDb2dVertex
 10
840.50390625
 20
-128.369140625
 30
0.0
  0
VERTEX
  5
FD
330
FB
100
AcDbEntity
  8
Layer 1
370
     0
100
AcDbVertex
100
AcDb2dVertex
 10
840.50390625
 20
-116.142578125
 30
0.0
  0
VERTEX
  5
FE
330
FB
100
AcDbEntity
  8
Layer 1
370
     0
100
AcDbVertex
100
AcDb2dVertex
 10
838.029296875
 20
-108.9013671875
 30
0.0
  0
VERTEX
  5
FF
330
FB
100
AcDbEntity
  8
Layer 1
370
     0
100
AcDbVertex
100
AcDb2dVertex
 10
835.5556640625
 20
-104.1708984375
 30
0.0
  0
VERTEX
  5
100
330
FB
100
AcDbEntity
  8
Layer 1
370
     0
100
AcDbVertex
100
AcDb2dVertex
 10
830.642578125
 20
-99.4404296875
 30
0.0
  0
VERTEX
  5
101
330
FB
100
AcDbEntity
  8
Layer 1
370
     0
100
AcDbVertex
100
AcDb2dVertex
 10
825.9853515625
 20
-97.14794921875
 30
0.0
  0
VERTEX
  5
102
330
FB
100
AcDbEntity
  8
Layer 1
370
     0
100
AcDbVertex
100
AcDb2dVertex
 10
816.3056640625
 20
-97.14794921875
 30
0.0
  0
VERTEX
  5
103
330
FB
100
AcDbEntity
  8
Layer 1
370
     0
100
AcDbVertex
100
AcDb2dVertex
 10
811.611328125
 20
-99.4404296875
 30
0.0
  0
VERTEX
  5
104
330
FB
100
AcDbEntity
  8
Layer 1
370
     0
100
AcDbVertex
100
AcDb2dVertex
 10
806.7353515625
 20
-104.1708984375
 30
0.0
  0
VERTEX
  5
105
330
FB
100
AcDbEntity
  8
Layer 1
370
     0
100
AcDbVertex
100
AcDb2dVertex
 10
804.224609375
 20
-108.9013671875
 30
0.0
  0
VERTEX
  5
106
330
FB
100
AcDbEntity
  8
Layer 1
370
     0
100
AcDbVertex
100
AcDb2dVertex
 10
801.7861328125
 20
-116.142578125
 30
0.0
  0
VERTEX
  5
107
330
FB
100
AcDbEntity
  8
Layer 1
370
     0
100
AcDbVertex
100
AcDb2dVertex
 10
801.7861328125
 20
-128.369140625
 30
0.0
  0
VERTEX
  5
108
330
FB
100
AcDbEntity
  8
Layer 1
370
     0
100
AcDbVertex
100
AcDb2dVertex
 10
804.224609375
 20
-135.611328125
 30
0.0
  0
VERTEX
  5
109
330
FB
100
AcDbEntity
  8
Layer 1
370
     0
100
AcDbVertex
100
AcDb2dVertex
 10
806.7353515625
 20
-140.341796875
 30
0.0
  0
VERTEX
  5
10A
330
FB
100
AcDbEntity
  8
Layer 1
370
     0
100
AcDbVertex
100
AcDb2dVertex
 10
811.611328125
 20
-145.072265625
 30
0.0
  0
VERTEX
  5
10B
330
FB
100
AcDbEntity
  8
Layer 1
370
     0
100
AcDbVertex
100
AcDb2dVertex
 10
816.3056640625
 20
-147.3642578125
 30
0.0
  0
VERTEX
  5
10C
330
FB
100
AcDbEntity
  8
Layer 1
370
     0
100
AcDbVertex
100
AcDb2dVertex
 10
825.9853515625
 20
-147.3642578125
 30
0.0
  0
VERTEX
  5
10D
330
FB
100
AcDbEntity
  8
Layer 1
370
     0
100
AcDbVertex
100
AcDb2dVertex
 10
830.642578125
 20
-145.072265625
 30
0.0
  0
VERTEX
  5
10E
330
FB
100
AcDbEntity
  8
Layer 1
370
     0
100
AcDbVertex
100
AcDb2dVertex
 10
835.5556640625
 20
-140.341796875
 30
0.0
  0
VERTEX
  5
10F
330
FB
100
AcDbEntity
  8
Layer 1
370
     0
100
AcDbVertex
100
AcDb2dVertex
 10
838.029296875
 20
-135.611328125
 30
0.0
  0
VERTEX
  5
110
330
FB
100
AcDbEntity
  8
Layer 1
370
     0
100
AcDbVertex
100
AcDb2dVertex
 10
840.50390625
 20
-128.369140625
 30
0.0
  0
SEQEND
  5
111
330
FB
100
AcDbEntity
  8
Layer 1
370
     0
  0
HATCH
  5
112
330
41
100
AcDbEntity
  8
Layer 1
 62
     7
420
 16777215
100
AcDbHatch
 10
0.0
 20
0.0
 30
0.0
210
0.0
220
0.0
230
1.0
  2
SOLID
 70
     1
 71
     0
 91
        2
 92
        1
 93
       20
 72
     1
 10
843.5244140625
 20
-128.806640625
 11
840.7587890625
 21
-136.7021484375
 72
     1
 10
840.7587890625
 20
-136.7021484375
 11
838.06640625
 21
-142.125
 72
     1
 10
838.06640625
 20
-142.125
 11
832.4990234375
 21
-147.509765625
 72
     1
 10
832.4990234375
 20
-147.509765625
 11
826.712890625
 21
-150.203125
 72
     1
 10
826.712890625
 20
-150.203125
 11
815.541015625
 21
-150.203125
 72
     1
 10
815.541015625
 20
-150.203125
 11
809.7919921875
 21
-147.509765625
 72
     1
 10
809.7919921875
 20
-147.509765625
 11
804.1884765625
 21
-142.125
 72
     1
 10
804.1884765625
 20
-142.125
 11
801.53125
 21
-136.7021484375
 72
     1
 10
801.53125
 20
-136.7021484375
 11
798.7666015625
 21
-128.806640625
 72
     1
 10
798.7666015625
 20
-128.806640625
 11
798.7666015625
 21
-115.7421875
 72
     1
 10
798.7666015625
 20
-115.7421875
 11
801.53125
 21
-107.81005859375
 72
     1
 10
801.53125
 20
-107.81005859375
 11
804.1884765625
 21
-102.38818359375
 72
     1
 10
804.1884765625
 20
-102.38818359375
 11
809.7919921875
 21
-97.00244140625
 72
     1
 10
809.7919921875
 20
-97.00244140625
 11
815.541015625
 21
-94.23681640625
 72
     1
 10
815.541015625
 20
-94.23681640625
 11
826.712890625
 21
-94.23681640625
 72
     1
 10
826.712890625
 20
-94.23681640625
 11
832.4990234375
 21
-97.00244140625
 72
     1
 10
832.4990234375
 20
-97.00244140625
 11
838.06640625
 21
-102.38818359375
 72
     1
 10
838.06640625
 20
-102.38818359375
 11
840.7587890625
 21
-107.81005859375
 72
     1
 10
840.7587890625
 20
-107.81005859375
 11
843.5244140625
 21
-115.7421875
 72
     1
 10
843.5244140625
 20
-115.7421875
 11
843.5244140625
 21
-128.806640625
 97
        0
 92
        1
 93
       20
 72
     1
 10
840.50390625
 20
-128.369140625
 11
840.50390625
 21
-116.142578125
 72
     1
 10
840.50390625
 20
-116.142578125
 11
838.029296875
 21
-108.9013671875
 72
     1
 10
838.029296875
 20
-108.9013671875
 11
835.5556640625
 21
-104.1708984375
 72
     1
 10
835.5556640625
 20
-104.1708984375
 11
830.642578125
 21
-99.4404296875
 72
     1
 10
830.642578125
 20
-99.4404296875
 11
825.9853515625
 21
-97.14794921875
 72
     1
 10
825.9853515625
 20
-97.14794921875
 11
816.3056640625
 21
-97.14794921875
 72
     1
 10
816.3056640625
 20
-97.14794921875
 11
811.611328125
 21
-99.4404296875
 72
     1
 10
811.611328125
 20
-99.4404296875
 11
806.7353515625
 21
-104.1708984375
 72
     1
 10
806.7353515625
 20
-104.1708984375
 11
804.224609375
 21
-108.9013671875
 72
     1
 10
804.224609375
 20
-108.9013671875
 11
801.7861328125
 21
-116.142578125
 72
     1
 10
801.7861328125
 20
-116.142578125
 11
801.7861328125
 21
-128.369140625
 72
     1
 10
801.7861328125
 20
-128.369140625
 11
804.224609375
 21
-135.611328125
 72
     1
 10
804.224609375
 20
-135.611328125
 11
806.7353515625
 21
-140.341796875
 72
     1
 10
806.7353515625
 20
-140.341796875
 11
811.611328125
 21
-145.072265625
 72
     1
 10
811.611328125
 20
-145.072265625
 11
816.3056640625
 21
-147.3642578125
 72
     1
 10
816.3056640625
 20
-147.3642578125
 11
825.9853515625
 21
-147.3642578125
 72
     1
 10
825.9853515625
 20
-147.3642578125
 11
830.642578125
 21
-145.072265625
 72
     1
 10
830.642578125
 20
-145.072265625
 11
835.5556640625
 21
-140.341796875
 72
     1
 10
835.5556640625
 20
-140.341796875
 11
838.029296875
 21
-135.611328125
 72
     1
 10
838.029296875
 20
-135.611328125
 11
840.50390625
 21
-128.369140625
 97
        0
 75
     2
 76
     1
 98
        0
  0
POLYLINE
  5
113
330
41
100
AcDbEntity
  8
Layer 1
370
     0
100
AcDb2dPolyline
 66
     1
 10
0.0
 20
0.0
 30
0.0
  0
VERTEX
  5
114
330
113
100
AcDbEntity
  8
Layer 1
370
     0
100
AcDbVertex
100
AcDb2dVertex
 10
897.453125
 20
-97.14794921875
 30
0.0
  0
VERTEX
  5
115
330
113
100
AcDbEntity
  8
Layer 1
370
     0
100
AcDbVertex
100
AcDb2dVertex
 10
879.7685546875
 20
-97.14794921875
 30
0.0
  0
VERTEX
  5
116
330
113
100
AcDbEntity
  8
Layer 1
370
     0
100
AcDbVertex
100
AcDb2dVertex
 10
879.7685546875
 20
-149.693359375
 30
0.0
  0
VERTEX
  5
117
330
113
100
AcDbEntity
  8
Layer 1
370
     0
100
AcDbVertex
100
AcDb2dVertex
 10
876.748046875
 20
-149.693359375
 30
0.0
  0
VERTEX
  5
118
330
113
100
AcDbEntity
  8
Layer 1
370
     0
100
AcDbVertex
100
AcDb2dVertex
 10
876.748046875
 20
-97.14794921875
 30
0.0
  0
VERTEX
  5
119
330
113
100
AcDbEntity
  8
Layer 1
370
     0
100
AcDbVertex
100
AcDb2dVertex
 10
859.099609375
 20
-97.14794921875
 30
0.0
  0
VERTEX
  5
11A
330
113
100
AcDbEntity
  8
Layer 1
370
     0
100
AcDbVertex
100
AcDb2dVertex
 10
859.099609375
 20
-94.23681640625
 30
0.0
  0
VERTEX
  5
11B
330
113
100
AcDbEntity
  8
Layer 1
370
     0
100
AcDbVertex
100
AcDb2dVertex
 10
897.453125
 20
-94.23681640625
 30
0.0
  0
VERTEX
  5
11C
330
113
100
AcDbEntity
  8
Layer 1
370
     0
100
AcDbVertex
100
AcDb2dVertex
 10
897.453125
 20
-97.14794921875
 30
0.0
  0
SEQEND
  5
11D
330
113
100
AcDbEntity
  8
Layer 1
370
     0
  0
HATCH
  5
11E
330
41
100
AcDbEntity
  8
Layer 1
 62
     7
420
 16777215
100
AcDbHatch
 10
0.0
 20
0.0
 30
0.0
210
0.0
220
0.0
230
1.0
  2
SOLID
 70
     1
 71
     0
 91
        1
 92
        1
 93
        8
 72
     1
 10
897.453125
 20
-97.14794921875
 11
879.7685546875
 21
-97.14794921875
 72
     1
 10
879.7685546875
 20
-97.14794921875
 11
879.7685546875
 21
-149.693359375
 72
     1
 10
879.7685546875
 20
-149.693359375
 11
876.748046875
 21
-149.693359375
 72
     1
 10
876.748046875
 20
-149.693359375
 11
876.748046875
 21
-97.14794921875
 72
     1
 10
876.748046875
 20
-97.14794921875
 11
859.099609375
 21
-97.14794921875
 72
     1
 10
859.099609375
 20
-97.14794921875
 11
859.099609375
 21
-94.23681640625
 72
     1
 10
859.099609375
 20
-94.23681640625
 11
897.453125
 21
-94.23681640625
 72
     1
 10
897.453125
 20
-94.23681640625
 11
897.453125
 21
-97.14794921875
 97
        0
 75
     2
 76
     1
 98
        0
  0
POLYLINE
  5
11F
330
41
100
AcDbEntity
  8
Layer 1
370
     0
100
AcDb2dPolyline
 66
     1
 10
0.0
 20
0.0
 30
0.0
  0
VERTEX
  5
120
330
11F
100
AcDbEntity
  8
Layer 1
370
     0
100
AcDbVertex
100
AcDb2dVertex
 10
947.341796875
 20
-149.693359375
 30
0.0
  0
VERTEX
  5
121
330
11F
100
AcDbEntity
  8
Layer 1
370
     0
100
AcDbVertex
100
AcDb2dVertex
 10
944.3212890625
 20
-149.693359375
 30
0.0
  0
VERTEX
  5
122
330
11F
100
AcDbEntity
  8
Layer 1
370
     0
100
AcDbVertex
100
AcDb2dVertex
 10
944.3212890625
 20
-122.474609375
 30
0.0
  0
VERTEX
  5
123
330
11F
100
AcDbEntity
  8
Layer 1
370
     0
100
AcDbVertex
100
AcDb2dVertex
 10
908.1875
 20
-122.474609375
 30
0.0
  0
VERTEX
  5
124
330
11F
100
AcDbEntity
  8
Layer 1
370
     0
100
AcDbVertex
100
AcDb2dVertex
 10
908.1875
 20
-149.693359375
 30
0.0
  0
VERTEX
  5
125
330
11F
100
AcDbEntity
  8
Layer 1
370
     0
100
AcDbVertex
100
AcDb2dVertex
 10
905.203125
 20
-149.693359375
 30
0.0
  0
VERTEX
  5
126
330
11F
100
AcDbEntity
  8
Layer 1
370
     0
100
AcDbVertex
100
AcDb2dVertex
 10
905.203125
 20
-94.78271484375
 30
0.0
  0
VERTEX
  5
127
330
11F
100
AcDbEntity
  8
Layer 1
370
     0
100
AcDbVertex
100
AcDb2dVertex
 10
908.1875
 20
-94.78271484375
 30
0.0
  0
VERTEX
  5
128
330
11F
100
AcDbEntity
  8
Layer 1
370
     0
100
AcDbVertex
100
AcDb2dVertex
 10
908.1875
 20
-119.52734375
 30
0.0
  0
VERTEX
  5
129
330
11F
100
AcDbEntity
  8
Layer 1
370
     0
100
AcDbVertex
100
AcDb2dVertex
 10
944.3212890625
 20
-119.52734375
 30
0.0
  0
VERTEX
  5
12A
330
11F
100
AcDbEntity
  8
Layer 1
370
     0
100
AcDbVertex
100
AcDb2dVertex
 10
944.3212890625
 20
-94.78271484375
 30
0.0
  0
VERTEX
  5
12B
330
11F
100
AcDbEntity
  8
Layer 1
370
     0
100
AcDbVertex
100
AcDb2dVertex
 10
947.341796875
 20
-94.78271484375
 30
0.0
  0
VERTEX
  5
12C
330
11F
100
AcDbEntity
  8
Layer 1
370
     0
100
AcDbVertex
100
AcDb2dVertex
 10
947.341796875
 20
-149.693359375
 30
0.0
  0
SEQEND
  5
12D
330
11F
100
AcDbEntity
  8
Layer 1
370
     0
  0
HATCH
  5
12E
330
41
100
AcDbEntity
  8
Layer 1
 62
     7
420
 16777215
100
AcDbHatch
 10
0.0
 20
0.0
 30
0.0
210
0.0
220
0.0
230
1.0
  2
SOLID
 70
     1
 71
     0
 91
        1
 92
        1
 93
       12
 72
     1
 10
947.341796875
 20
-149.693359375
 11
944.3212890625
 21
-149.693359375
 72
     1
 10
944.3212890625
 20
-149.693359375
 11
944.3212890625
 21
-122.474609375
 72
     1
 10
944.3212890625
 20
-122.474609375
 11
908.1875
 21
-122.474609375
 72
     1
 10
908.1875
 20
-122.474609375
 11
908.1875
 21
-149.693359375
 72
     1
 10
908.1875
 20
-149.693359375
 11
905.203125
 21
-149.693359375
 72
     1
 10
905.203125
 20
-149.693359375
 11
905.203125
 21
-94.78271484375
 72
     1
 10
905.203125
 20
-94.78271484375
 11
908.1875
 21
-94.78271484375
 72
     1
 10
908.1875
 20
-94.78271484375
 11
908.1875
 21
-119.52734375
 72
     1
 10
908.1875
 20
-119.52734375
 11
944.3212890625
 21
-119.52734375
 72
     1
 10
944.3212890625
 20
-119.52734375
 11
944.3212890625
 21
-94.78271484375
 72
     1
 10
944.3212890625
 20
-94.78271484375
 11
947.341796875
 21
-94.78271484375
 72
     1
 10
947.341796875
 20
-94.78271484375
 11
947.341796875
 21
-149.693359375
 97
        0
 75
     2
 76
     1
 98
        0
  0
POLYLINE
  5
12F
330
41
100
AcDbEntity
  8
Layer 1
370
     0
100
AcDb2dPolyline
 66
     1
 10
0.0
 20
0.0
 30
0.0
  0
VERTEX
  5
130
330
12F
100
AcDbEntity
  8
Layer 1
370
     0
100
AcDbVertex
100
AcDb2dVertex
 10
1009.857421875
 20
-95.947265625
 30
0.0
  0
VERTEX
  5
131
330
12F
100
AcDbEntity
  8
Layer 1
370
     0
100
AcDbVertex
100
AcDb2dVertex
 10
988.7880859375
 20
-121.5283203125
 30
0.0
  0
VERTEX
  5
132
330
12F
100
AcDbEntity
  8
Layer 1
370
     0
100
AcDbVertex
100
AcDb2dVertex
 10
988.7880859375
 20
-149.693359375
 30
0.0
  0
VERTEX
  5
133
330
12F
100
AcDbEntity
  8
Layer 1
370
     0
100
AcDbVertex
100
AcDb2dVertex
 10
985.7685546875
 20
-149.693359375
 30
0.0
  0
VERTEX
  5
134
330
12F
100
AcDbEntity
  8
Layer 1
370
     0
100
AcDbVertex
100
AcDb2dVertex
 10
985.7685546875
 20
-121.5283203125
 30
0.0
  0
VERTEX
  5
135
330
12F
100
AcDbEntity
  8
Layer 1
370
     0
100
AcDbVertex
100
AcDb2dVertex
 10
964.7353515625
 20
-95.947265625
 30
0.0
  0
VERTEX
  5
136
330
12F
100
AcDbEntity
  8
Layer 1
370
     0
100
AcDbVertex
100
AcDb2dVertex
 10
966.9912109375
 20
-94.0546875
 30
0.0
  0
VERTEX
  5
137
330
12F
100
AcDbEntity
  8
Layer 1
370
     0
100
AcDbVertex
100
AcDb2dVertex
 10
987.296875
 20
-118.6533203125
 30
0.0
  0
VERTEX
  5
138
330
12F
100
AcDbEntity
  8
Layer 1
370
     0
100
AcDbVertex
100
AcDb2dVertex
 10
1007.6015625
 20
-94.0546875
 30
0.0
  0
VERTEX
  5
139
330
12F
100
AcDbEntity
  8
Layer 1
370
     0
100
AcDbVertex
100
AcDb2dVertex
 10
1009.857421875
 20
-95.947265625
 30
0.0
  0
SEQEND
  5
13A
330
12F
100
AcDbEntity
  8
Layer 1
370
     0
  0
HATCH
  5
13B
330
41
100
AcDbEntity
  8
Layer 1
 62
     7
420
 16777215
100
AcDbHatch
 10
0.0
 20
0.0
 30
0.0
210
0.0
220
0.0
230
1.0
  2
SOLID
 70
     1
 71
     0
 91
        1
 92
        1
 93
        9
 72
     1
 10
1009.857421875
 20
-95.947265625
 11
988.7880859375
 21
-121.5283203125
 72
     1
 10
988.7880859375
 20
-121.5283203125
 11
988.7880859375
 21
-149.693359375
 72
     1
 10
988.7880859375
 20
-149.693359375
 11
985.7685546875
 21
-149.693359375
 72
     1
 10
985.7685546875
 20
-149.693359375
 11
985.7685546875
 21
-121.5283203125
 72
     1
 10
985.7685546875
 20
-121.5283203125
 11
964.7353515625
 21
-95.947265625
 72
     1
 10
964.7353515625
 20
-95.947265625
 11
966.9912109375
 21
-94.0546875
 72
     1
 10
966.9912109375
 20
-94.0546875
 11
987.296875
 21
-118.6533203125
 72
     1
 10
987.296875
 20
-118.6533203125
 11
1007.6015625
 21
-94.0546875
 72
     1
 10
1007.6015625
 20
-94.0546875
 11
1009.857421875
 21
-95.947265625
 97
        0
 75
     2
 76
     1
 98
        0
  0
POLYLINE
  5
13C
330
41
100
AcDbEntity
  8
Layer 1
370
     0
100
AcDb2dPolyline
 66
     1
 10
0.0
 20
0.0
 30
0.0
  0
VERTEX
  5
13D
330
13C
100
AcDbEntity
  8
Layer 1
370
     0
100
AcDbVertex
100
AcDb2dVertex
 10
1061.5673828125
 20
-149.693359375
 30
0.0
  0
VERTEX
  5
13E
330
13C
100
AcDbEntity
  8
Layer 1
370
     0
100
AcDbVertex
100
AcDb2dVertex
 10
1058.5830078125
 20
-149.693359375
 30
0.0
  0
VERTEX
  5
13F
330
13C
100
AcDbEntity
  8
Layer 1
370
     0
100
AcDbVertex
100
AcDb2dVertex
 10
1058.5830078125
 20
-103.5888671875
 30
0.0
  0
VERTEX
  5
140
330
13C
100
AcDbEntity
  8
Layer 1
370
     0
100
AcDbVertex
100
AcDb2dVertex
 10
1040.4619140625
 20
-149.693359375
 30
0.0
  0
VERTEX
  5
141
330
13C
100
AcDbEntity
  8
Layer 1
370
     0
100
AcDbVertex
100
AcDb2dVertex
 10
1037.9873046875
 20
-149.693359375
 30
0.0
  0
VERTEX
  5
142
330
13C
100
AcDbEntity
  8
Layer 1
370
     0
100
AcDbVertex
100
AcDb2dVertex
 10
1019.8291015625
 20
-103.5888671875
 30
0.0
  0
VERTEX
  5
143
330
13C
100
AcDbEntity
  8
Layer 1
370
     0
100
AcDbVertex
100
AcDb2dVertex
 10
1019.8291015625
 20
-149.693359375
 30
0.0
  0
VERTEX
  5
144
330
13C
100
AcDbEntity
  8
Layer 1
370
     0
100
AcDbVertex
100
AcDb2dVertex
 10
1016.8447265625
 20
-149.693359375
 30
0.0
  0
VERTEX
  5
145
330
13C
100
AcDbEntity
  8
Layer 1
370
     0
100
AcDbVertex
100
AcDb2dVertex
 10
1016.8447265625
 20
-94.23681640625
 30
0.0
  0
VERTEX
  5
146
330
13C
100
AcDbEntity
  8
Layer 1
370
     0
100
AcDbVertex
100
AcDb2dVertex
 10
1019.3564453125
 20
-94.23681640625
 30
0.0
  0
VERTEX
  5
147
330
13C
100
AcDbEntity
  8
Layer 1
370
     0
100
AcDbVertex
100
AcDb2dVertex
 10
1039.224609375
 20
-144.78125
 30
0.0
  0
VERTEX
  5
148
330
13C
100
AcDbEntity
  8
Layer 1
370
     0
100
AcDbVertex
100
AcDb2dVertex
 10
1059.056640625
 20
-94.23681640625
 30
0.0
  0
VERTEX
  5
149
330
13C
100
AcDbEntity
  8
Layer 1
370
     0
100
AcDbVertex
100
AcDb2dVertex
 10
1061.5673828125
 20
-94.23681640625
 30
0.0
  0
VERTEX
  5
14A
330
13C
100
AcDbEntity
  8
Layer 1
370
     0
100
AcDbVertex
100
AcDb2dVertex
 10
1061.5673828125
 20
-149.693359375
 30
0.0
  0
SEQEND
  5
14B
330
13C
100
AcDbEntity
  8
Layer 1
370
     0
  0
HATCH
  5
14C
330
41
100
AcDbEntity
  8
Layer 1
 62
     7
420
 16777215
100
AcDbHatch
 10
0.0
 20
0.0
 30
0.0
210
0.0
220
0.0
230
1.0
  2
SOLID
 70
     1
 71
     0
 91
        1
 92
        1
 93
       13
 72
     1
 10
1061.5673828125
 20
-149.693359375
 11
1058.5830078125
 21
-149.693359375
 72
     1
 10
1058.5830078125
 20
-149.693359375
 11
1058.5830078125
 21
-103.5888671875
 72
     1
 10
1058.5830078125
 20
-103.5888671875
 11
1040.4619140625
 21
-149.693359375
 72
     1
 10
1040.4619140625
 20
-149.693359375
 11
1037.9873046875
 21
-149.693359375
 72
     1
 10
1037.9873046875
 20
-149.693359375
 11
1019.8291015625
 21
-103.5888671875
 72
     1
 10
1019.8291015625
 20
-103.5888671875
 11
1019.8291015625
 21
-149.693359375
 72
     1
 10
1019.8291015625
 20
-149.693359375
 11
1016.8447265625
 21
-149.693359375
 72
     1
 10
1016.8447265625
 20
-149.693359375
 11
1016.8447265625
 21
-94.23681640625
 72
     1
 10
1016.8447265625
 20
-94.23681640625
 11
1019.3564453125
 21
-94.23681640625
 72
     1
 10
1019.3564453125
 20
-94.23681640625
 11
1039.224609375
 21
-144.78125
 72
     1
 10
1039.224609375
 20
-144.78125
 11
1059.056640625
 21
-94.23681640625
 72
     1
 10
1059.056640625
 20
-94.23681640625
 11
1061.5673828125
 21
-94.23681640625
 72
     1
 10
1061.5673828125
 20
-94.23681640625
 11
1061.5673828125
 21
-149.693359375
 97
        0
 75
     2
 76
     1
 98
        0
  0
POLYLINE
  5
14D
330
41
100
AcDbEntity
  8
Layer 1
370
     0
100
AcDb2dPolyline
 66
     1
 10
0.0
 20
0.0
 30
0.0
  0
VERTEX
  5
14E
330
14D
100
AcDbEntity
  8
Layer 1
370
     0
100
AcDbVertex
100
AcDb2dVertex
 10
1121.3173828125
 20
-128.806640625
 30
0.0
  0
VERTEX
  5
14F
330
14D
100
AcDbEntity
  8
Layer 1
370
     0
100
AcDbVertex
100
AcDb2dVertex
 10
1118.5517578125
 20
-136.7021484375
 30
0.0
  0
VERTEX
  5
150
330
14D
100
AcDbEntity
  8
Layer 1
370
     0
100
AcDbVertex
100
AcDb2dVertex
 10
1115.859375
 20
-142.125
 30
0.0
  0
VERTEX
  5
151
330
14D
100
AcDbEntity
  8
Layer 1
370
     0
100
AcDbVertex
100
AcDb2dVertex
 10
1110.2919921875
 20
-147.509765625
 30
0.0
  0
VERTEX
  5
152
330
14D
100
AcDbEntity
  8
Layer 1
370
     0
100
AcDbVertex
100
AcDb2dVertex
 10
1104.505859375
 20
-150.203125
 30
0.0
  0
VERTEX
  5
153
330
14D
100
AcDbEntity
  8
Layer 1
370
     0
100
AcDbVertex
100
AcDb2dVertex
 10
1093.333984375
 20
-150.203125
 30
0.0
  0
VERTEX
  5
154
330
14D
100
AcDbEntity
  8
Layer 1
370
     0
100
AcDbVertex
100
AcDb2dVertex
 10
1087.5849609375
 20
-147.509765625
 30
0.0
  0
VERTEX
  5
155
330
14D
100
AcDbEntity
  8
Layer 1
370
     0
100
AcDbVertex
100
AcDb2dVertex
 10
1081.9814453125
 20
-142.125
 30
0.0
  0
VERTEX
  5
156
330
14D
100
AcDbEntity
  8
Layer 1
370
     0
100
AcDbVertex
100
AcDb2dVertex
 10
1079.32421875
 20
-136.7021484375
 30
0.0
  0
VERTEX
  5
157
330
14D
100
AcDbEntity
  8
Layer 1
370
     0
100
AcDbVertex
100
AcDb2dVertex
 10
1076.5595703125
 20
-128.806640625
 30
0.0
  0
VERTEX
  5
158
330
14D
100
AcDbEntity
  8
Layer 1
370
     0
100
AcDbVertex
100
AcDb2dVertex
 10
1076.5595703125
 20
-115.7421875
 30
0.0
  0
VERTEX
  5
159
330
14D
100
AcDbEntity
  8
Layer 1
370
     0
100
AcDbVertex
100
AcDb2dVertex
 10
1079.32421875
 20
-107.81005859375
 30
0.0
  0
VERTEX
  5
15A
330
14D
100
AcDbEntity
  8
Layer 1
370
     0
100
AcDbVertex
100
AcDb2dVertex
 10
1081.9814453125
 20
-102.38818359375
 30
0.0
  0
VERTEX
  5
15B
330
14D
100
AcDbEntity
  8
Layer 1
370
     0
100
AcDbVertex
100
AcDb2dVertex
 10
1087.5849609375
 20
-97.00244140625
 30
0.0
  0
VERTEX
  5
15C
330
14D
100
AcDbEntity
  8
Layer 1
370
     0
100
AcDbVertex
100
AcDb2dVertex
 10
1093.333984375
 20
-94.23681640625
 30
0.0
  0
VERTEX
  5
15D
330
14D
100
AcDbEntity
  8
Layer 1
370
     0
100
AcDbVertex
100
AcDb2dVertex
 10
1104.505859375
 20
-94.23681640625
 30
0.0
  0
VERTEX
  5
15E
330
14D
100
AcDbEntity
  8
Layer 1
370
     0
100
AcDbVertex
100
AcDb2dVertex
 10
1110.2919921875
 20
-97.00244140625
 30
0.0
  0
VERTEX
  5
15F
330
14D
100
AcDbEntity
  8
Layer 1
370
     0
100
AcDbVertex
100
AcDb2dVertex
 10
1115.859375
 20
-102.38818359375
 30
0.0
  0
VERTEX
  5
160
330
14D
100
AcDbEntity
  8
Layer 1
370
     0
100
AcDbVertex
100
AcDb2dVertex
 10
1118.5517578125
 20
-107.81005859375
 30
0.0
  0
VERTEX
  5
161
330
14D
100
AcDbEntity
  8
Layer 1
370
     0
100
AcDbVertex
100
AcDb2dVertex
 10
1121.3173828125
 20
-115.7421875
 30
0.0
  0
VERTEX
  5
162
330
14D
100
AcDbEntity
  8
Layer 1
370
     0
100
AcDbVertex
100
AcDb2dVertex
 10
1121.3173828125
 20
-128.806640625
 30
0.0
  0
SEQEND
  5
163
330
14D
100
AcDbEntity
  8
Layer 1
370
     0
  0
POLYLINE
  5
164
330
41
100
AcDbEntity
  8
Layer 1
370
     0
100
AcDb2dPolyline
 66
     1
 10
0.0
 20
0.0
 30
0.0
  0
VERTEX
  5
165
330
164
100
AcDbEntity
  8
Layer 1
370
     0
100
AcDbVertex
100
AcDb2dVertex
 10
1118.296875
 20
-128.369140625
 30
0.0
  0
VERTEX
  5
166
330
164
100
AcDbEntity
  8
Layer 1
370
     0
100
AcDbVertex
100
AcDb2dVertex
 10
1118.296875
 20
-116.142578125
 30
0.0
  0
VERTEX
  5
167
330
164
100
AcDbEntity
  8
Layer 1
370
     0
100
AcDbVertex
100
AcDb2dVertex
 10
1115.822265625
 20
-108.9013671875
 30
0.0
  0
VERTEX
  5
168
330
164
100
AcDbEntity
  8
Layer 1
370
     0
100
AcDbVertex
100
AcDb2dVertex
 10
1113.3486328125
 20
-104.1708984375
 30
0.0
  0
VERTEX
  5
169
330
164
100
AcDbEntity
  8
Layer 1
370
     0
100
AcDbVertex
100
AcDb2dVertex
 10
1108.435546875
 20
-99.4404296875
 30
0.0
  0
VERTEX
  5
16A
330
164
100
AcDbEntity
  8
Layer 1
370
     0
100
AcDbVertex
100
AcDb2dVertex
 10
1103.7783203125
 20
-97.14794921875
 30
0.0
  0
VERTEX
  5
16B
330
164
100
AcDbEntity
  8
Layer 1
370
     0
100
AcDbVertex
100
AcDb2dVertex
 10
1094.0986328125
 20
-97.14794921875
 30
0.0
  0
VERTEX
  5
16C
330
164
100
AcDbEntity
  8
Layer 1
370
     0
100
AcDbVertex
100
AcDb2dVertex
 10
1089.404296875
 20
-99.4404296875
 30
0.0
  0
VERTEX
  5
16D
330
164
100
AcDbEntity
  8
Layer 1
370
     0
100
AcDbVertex
100
AcDb2dVertex
 10
1084.5283203125
 20
-104.1708984375
 30
0.0
  0
VERTEX
  5
16E
330
164
100
AcDbEntity
  8
Layer 1
370
     0
100
AcDbVertex
100
AcDb2dVertex
 10
1082.017578125
 20
-108.9013671875
 30
0.0
  0
VERTEX
  5
16F
330
164
100
AcDbEntity
  8
Layer 1
370
     0
100
AcDbVertex
100
AcDb2dVertex
 10
1079.5791015625
 20
-116.142578125
 30
0.0
  0
VERTEX
  5
170
330
164
100
AcDbEntity
  8
Layer 1
370
     0
100
AcDbVertex
100
AcDb2dVertex
 10
1079.5791015625
 20
-128.369140625
 30
0.0
  0
VERTEX
  5
171
330
164
100
AcDbEntity
  8
Layer 1
370
     0
100
AcDbVertex
100
AcDb2dVertex
 10
1082.017578125
 20
-135.611328125
 30
0.0
  0
VERTEX
  5
172
330
164
100
AcDbEntity
  8
Layer 1
370
     0
100
AcDbVertex
100
AcDb2dVertex
 10
1084.5283203125
 20
-140.341796875
 30
0.0
  0
VERTEX
  5
173
330
164
100
AcDbEntity
  8
Layer 1
370
     0
100
AcDbVertex
100
AcDb2dVertex
 10
1089.404296875
 20
-145.072265625
 30
0.0
  0
VERTEX
  5
174
330
164
100
AcDbEntity
  8
Layer 1
370
     0
100
AcDbVertex
100
AcDb2dVertex
 10
1094.0986328125
 20
-147.3642578125
 30
0.0
  0
VERTEX
  5
175
330
164
100
AcDbEntity
  8
Layer 1
370
     0
100
AcDbVertex
100
AcDb2dVertex
 10
1103.7783203125
 20
-147.3642578125
 30
0.0
  0
VERTEX
  5
176
330
164
100
AcDbEntity
  8
Layer 1
370
     0
100
AcDbVertex
100
AcDb2dVertex
 10
1108.435546875
 20
-145.072265625
 30
0.0
  0
VERTEX
  5
177
330
164
100
AcDbEntity
  8
Layer 1
370
     0
100
AcDbVertex
100
AcDb2dVertex
 10
1113.3486328125
 20
-140.341796875
 30
0.0
  0
VERTEX
  5
178
330
164
100
AcDbEntity
  8
Layer 1
370
     0
100
AcDbVertex
100
AcDb2dVertex
 10
1115.822265625
 20
-135.611328125
 30
0.0
  0
VERTEX
  5
179
330
164
100
AcDbEntity
  8
Layer 1
370
     0
100
AcDbVertex
100
AcDb2dVertex
 10
1118.296875
 20
-128.369140625
 30
0.0
  0
SEQEND
  5
17A
330
164
100
AcDbEntity
  8
Layer 1
370
     0
  0
HATCH
  5
17B
330
41
100
AcDbEntity
  8
Layer 1
 62
     7
420
 16777215
100
AcDbHatch
 10
0.0
 20
0.0
 30
0.0
210
0.0
220
0.0
230
1.0
  2
SOLID
 70
     1
 71
     0
 91
        2
 92
        1
 93
       20
 72
     1
 10
1121.3173828125
 20
-128.806640625
 11
1118.5517578125
 21
-136.7021484375
 72
     1
 10
1118.5517578125
 20
-136.7021484375
 11
1115.859375
 21
-142.125
 72
     1
 10
1115.859375
 20
-142.125
 11
1110.2919921875
 21
-147.509765625
 72
     1
 10
1110.2919921875
 20
-147.509765625
 11
1104.505859375
 21
-150.203125
 72
     1
 10
1104.505859375
 20
-150.203125
 11
1093.333984375
 21
-150.203125
 72
     1
 10
1093.333984375
 20
-150.203125
 11
1087.5849609375
 21
-147.509765625
 72
     1
 10
1087.5849609375
 20
-147.509765625
 11
1081.9814453125
 21
-142.125
 72
     1
 10
1081.9814453125
 20
-142.125
 11
1079.32421875
 21
-136.7021484375
 72
     1
 10
1079.32421875
 20
-136.7021484375
 11
1076.5595703125
 21
-128.806640625
 72
     1
 10
1076.5595703125
 20
-128.806640625
 11
1076.5595703125
 21
-115.7421875
 72
     1
 10
1076.5595703125
 20
-115.7421875
 11
1079.32421875
 21
-107.81005859375
 72
     1
 10
1079.32421875
 20
-107.81005859375
 11
1081.9814453125
 21
-102.38818359375
 72
     1
 10
1081.9814453125
 20
-102.38818359375
 11
1087.5849609375
 21
-97.00244140625
 72
     1
 10
1087.5849609375
 20
-97.00244140625
 11
1093.333984375
 21
-94.23681640625
 72
     1
 10
1093.333984375
 20
-94.23681640625
 11
1104.505859375
 21
-94.23681640625
 72
     1
 10
1104.505859375
 20
-94.23681640625
 11
1110.2919921875
 21
-97.00244140625
 72
     1
 10
1110.2919921875
 20
-97.00244140625
 11
1115.859375
 21
-102.38818359375
 72
     1
 10
1115.859375
 20
-102.38818359375
 11
1118.5517578125
 21
-107.81005859375
 72
     1
 10
1118.5517578125
 20
-107.81005859375
 11
1121.3173828125
 21
-115.7421875
 72
     1
 10
1121.3173828125
 20
-115.7421875
 11
1121.3173828125
 21
-128.806640625
 97
        0
 92
        1
 93
       20
 72
     1
 10
1118.296875
 20
-128.369140625
 11
1118.296875
 21
-116.142578125
 72
     1
 10
1118.296875
 20
-116.142578125
 11
1115.822265625
 21
-108.9013671875
 72
     1
 10
1115.822265625
 20
-108.9013671875
 11
1113.3486328125
 21
-104.1708984375
 72
     1
 10
1113.3486328125
 20
-104.1708984375
 11
1108.435546875
 21
-99.4404296875
 72
     1
 10
1108.435546875
 20
-99.4404296875
 11
1103.7783203125
 21
-97.14794921875
 72
     1
 10
1103.7783203125
 20
-97.14794921875
 11
1094.0986328125
 21
-97.14794921875
 72
     1
 10
1094.0986328125
 20
-97.14794921875
 11
1089.404296875
 21
-99.4404296875
 72
     1
 10
1089.404296875
 20
-99.4404296875
 11
1084.5283203125
 21
-104.1708984375
 72
     1
 10
1084.5283203125
 20
-104.1708984375
 11
1082.017578125
 21
-108.9013671875
 72
     1
 10
1082.017578125
 20
-108.9013671875
 11
1079.5791015625
 21
-116.142578125
 72
     1
 10
1079.5791015625
 20
-116.142578125
 11
1079.5791015625
 21
-128.369140625
 72
     1
 10
1079.5791015625
 20
-128.369140625
 11
1082.017578125
 21
-135.611328125
 72
     1
 10
1082.017578125
 20
-135.611328125
 11
1084.5283203125
 21
-140.341796875
 72
     1
 10
1084.5283203125
 20
-140.341796875
 11
1089.404296875
 21
-145.072265625
 72
     1
 10
1089.404296875
 20
-145.072265625
 11
1094.0986328125
 21
-147.3642578125
 72
     1
 10
1094.0986328125
 20
-147.3642578125
 11
1103.7783203125
 21
-147.3642578125
 72
     1
 10
1103.7783203125
 20
-147.3642578125
 11
1108.435546875
 21
-145.072265625
 72
     1
 10
1108.435546875
 20
-145.072265625
 11
1113.3486328125
 21
-140.341796875
 72
     1
 10
1113.3486328125
 20
-140.341796875
 11
1115.822265625
 21
-135.611328125
 72
     1
 10
1115.822265625
 20
-135.611328125
 11
1118.296875
 21
-128.369140625
 97
        0
 75
     2
 76
     1
 98
        0
  0
POLYLINE
  5
17C
330
41
100
AcDbEntity
  8
Layer 1
370
     0
100
AcDb2dPolyline
 66
     1
 10
0.0
 20
0.0
 30
0.0
  0
VERTEX
  5
17D
330
17C
100
AcDbEntity
  8
Layer 1
370
     0
100
AcDbVertex
100
AcDb2dVertex
 10
1167.421875
 20
-150.203125
 30
0.0
  0
VERTEX
  5
17E
330
17C
100
AcDbEntity
  8
Layer 1
370
     0
100
AcDbVertex
100
AcDb2dVertex
 10
1136.30859375
 20
-150.203125
 30
0.0
  0
VERTEX
  5
17F
330
17C
100
AcDbEntity
  8
Layer 1
370
     0
100
AcDbVertex
100
AcDb2dVertex
 10
1136.30859375
 20
-94.78271484375
 30
0.0
  0
VERTEX
  5
180
330
17C
100
AcDbEntity
  8
Layer 1
370
     0
100
AcDbVertex
100
AcDb2dVertex
 10
1139.29296875
 20
-94.78271484375
 30
0.0
  0
VERTEX
  5
181
330
17C
100
AcDbEntity
  8
Layer 1
370
     0
100
AcDbVertex
100
AcDb2dVertex
 10
1139.29296875
 20
-147.3642578125
 30
0.0
  0
VERTEX
  5
182
330
17C
100
AcDbEntity
  8
Layer 1
370
     0
100
AcDbVertex
100
AcDb2dVertex
 10
1167.421875
 20
-147.3642578125
 30
0.0
  0
VERTEX
  5
183
330
17C
100
AcDbEntity
  8
Layer 1
370
     0
100
AcDbVertex
100
AcDb2dVertex
 10
1167.421875
 20
-150.203125
 30
0.0
  0
SEQEND
  5
184
330
17C
100
AcDbEntity
  8
Layer 1
370
     0
  0
HATCH
  5
185
330
41
100
AcDbEntity
  8
Layer 1
 62
     7
420
 16777215
100
AcDbHatch
 10
0.0
 20
0.0
 30
0.0
210
0.0
220
0.0
230
1.0
  2
SOLID
 70
     1
 71
     0
 91
        1
 92
        1
 93
        6
 72
     1
 10
1167.421875
 20
-150.203125
 11
1136.30859375
 21
-150.203125
 72
     1
 10
1136.30859375
 20
-150.203125
 11
1136.30859375
 21
-94.78271484375
 72
     1
 10
1136.30859375
 20
-94.78271484375
 11
1139.29296875
 21
-94.78271484375
 72
     1
 10
1139.29296875
 20
-94.78271484375
 11
1139.29296875
 21
-147.3642578125
 72
     1
 10
1139.29296875
 20
-147.3642578125
 11
1167.421875
 21
-147.3642578125
 72
     1
 10
1167.421875
 20
-147.3642578125
 11
1167.421875
 21
-150.203125
 97
        0
 75
     2
 76
     1
 98
        0
  0
POLYLINE
  5
186
330
41
100
AcDbEntity
  8
Layer 1
370
     0
100
AcDb2dPolyline
 66
     1
 10
0.0
 20
0.0
 30
0.0
  0
VERTEX
  5
187
330
186
100
AcDbEntity
  8
Layer 1
370
     0
100
AcDbVertex
100
AcDb2dVertex
 10
1191.2197265625
 20
-101.87841796875
 30
0.0
  0
VERTEX
  5
188
330
186
100
AcDbEntity
  8
Layer 1
370
     0
100
AcDbVertex
100
AcDb2dVertex
 10
1190.3828125
 20
-104.42578125
 30
0.0
  0
VERTEX
  5
189
330
186
100
AcDbEntity
  8
Layer 1
370
     0
100
AcDbVertex
100
AcDb2dVertex
 10
1188.2724609375
 20
-106.42724609375
 30
0.0
  0
VERTEX
  5
18A
330
186
100
AcDbEntity
  8
Layer 1
370
     0
100
AcDbVertex
100
AcDb2dVertex
 10
1185.6884765625
 20
-107.26416015625
 30
0.0
  0
VERTEX
  5
18B
330
186
100
AcDbEntity
  8
Layer 1
370
     0
100
AcDbVertex
100
AcDb2dVertex
 10
1183.3232421875
 20
-107.26416015625
 30
0.0
  0
VERTEX
  5
18C
330
186
100
AcDbEntity
  8
Layer 1
370
     0
100
AcDbVertex
100
AcDb2dVertex
 10
1180.740234375
 20
-106.42724609375
 30
0.0
  0
VERTEX
  5
18D
330
186
100
AcDbEntity
  8
Layer 1
370
     0
100
AcDbVertex
100
AcDb2dVertex
 10
1178.62890625
 20
-104.42578125
 30
0.0
  0
VERTEX
  5
18E
330
186
100
AcDbEntity
  8
Layer 1
370
     0
100
AcDbVertex
100
AcDb2dVertex
 10
1177.7919921875
 20
-101.87841796875
 30
0.0
  0
VERTEX
  5
18F
330
186
100
AcDbEntity
  8
Layer 1
370
     0
100
AcDbVertex
100
AcDb2dVertex
 10
1177.7919921875
 20
-99.5859375
 30
0.0
  0
VERTEX
  5
190
330
186
100
AcDbEntity
  8
Layer 1
370
     0
100
AcDbVertex
100
AcDb2dVertex
 10
1178.62890625
 20
-97.111328125
 30
0.0
  0
VERTEX
  5
191
330
186
100
AcDbEntity
  8
Layer 1
370
     0
100
AcDbVertex
100
AcDb2dVertex
 10
1180.703125
 20
-95.03759765625
 30
0.0
  0
VERTEX
  5
192
330
186
100
AcDbEntity
  8
Layer 1
370
     0
100
AcDbVertex
100
AcDb2dVertex
 10
1183.3232421875
 20
-94.23681640625
 30
0.0
  0
VERTEX
  5
193
330
186
100
AcDbEntity
  8
Layer 1
370
     0
100
AcDbVertex
100
AcDb2dVertex
 10
1185.6884765625
 20
-94.23681640625
 30
0.0
  0
VERTEX
  5
194
330
186
100
AcDbEntity
  8
Layer 1
370
     0
100
AcDbVertex
100
AcDb2dVertex
 10
1188.30859375
 20
-95.03759765625
 30
0.0
  0
VERTEX
  5
195
330
186
100
AcDbEntity
  8
Layer 1
370
     0
100
AcDbVertex
100
AcDb2dVertex
 10
1190.3828125
 20
-97.111328125
 30
0.0
  0
VERTEX
  5
196
330
186
100
AcDbEntity
  8
Layer 1
370
     0
100
AcDbVertex
100
AcDb2dVertex
 10
1191.2197265625
 20
-99.5859375
 30
0.0
  0
VERTEX
  5
197
330
186
100
AcDbEntity
  8
Layer 1
370
     0
100
AcDbVertex
100
AcDb2dVertex
 10
1191.2197265625
 20
-101.87841796875
 30
0.0
  0
SEQEND
  5
198
330
186
100
AcDbEntity
  8
Layer 1
370
     0
  0
POLYLINE
  5
199
330
41
100
AcDbEntity
  8
Layer 1
370
     0
100
AcDb2dPolyline
 66
     1
 10
0.0
 20
0.0
 30
0.0
  0
VERTEX
  5
19A
330
199
100
AcDbEntity
  8
Layer 1
370
     0
100
AcDbVertex
100
AcDb2dVertex
 10
1188.19921875
 20
-101.47802734375
 30
0.0
  0
VERTEX
  5
19B
330
199
100
AcDbEntity
  8
Layer 1
370
     0
100
AcDbVertex
100
AcDb2dVertex
 10
1188.19921875
 20
-100.0224609375
 30
0.0
  0
VERTEX
  5
19C
330
199
100
AcDbEntity
  8
Layer 1
370
     0
100
AcDbVertex
100
AcDb2dVertex
 10
1187.7265625
 20
-98.712890625
 30
0.0
  0
VERTEX
  5
19D
330
199
100
AcDbEntity
  8
Layer 1
370
     0
100
AcDbVertex
100
AcDb2dVertex
 10
1186.5986328125
 20
-97.62109375
 30
0.0
  0
VERTEX
  5
19E
330
199
100
AcDbEntity
  8
Layer 1
370
     0
100
AcDbVertex
100
AcDb2dVertex
 10
1185.251953125
 20
-97.14794921875
 30
0.0
  0
VERTEX
  5
19F
330
199
100
AcDbEntity
  8
Layer 1
370
     0
100
AcDbVertex
100
AcDb2dVertex
 10
1183.759765625
 20
-97.14794921875
 30
0.0
  0
VERTEX
  5
1A0
330
199
100
AcDbEntity
  8
Layer 1
370
     0
100
AcDbVertex
100
AcDb2dVertex
 10
1182.4140625
 20
-97.62109375
 30
0.0
  0
VERTEX
  5
1A1
330
199
100
AcDbEntity
  8
Layer 1
370
     0
100
AcDbVertex
100
AcDb2dVertex
 10
1181.2861328125
 20
-98.712890625
 30
0.0
  0
VERTEX
  5
1A2
330
199
100
AcDbEntity
  8
Layer 1
370
     0
100
AcDbVertex
100
AcDb2dVertex
 10
1180.7763671875
 20
-100.0224609375
 30
0.0
  0
VERTEX
  5
1A3
330
199
100
AcDbEntity
  8
Layer 1
370
     0
100
AcDbVertex
100
AcDb2dVertex
 10
1180.7763671875
 20
-101.44189453125
 30
0.0
  0
VERTEX
  5
1A4
330
199
100
AcDbEntity
  8
Layer 1
370
     0
100
AcDbVertex
100
AcDb2dVertex
 10
1181.2861328125
 20
-102.7880859375
 30
0.0
  0
VERTEX
  5
1A5
330
199
100
AcDbEntity
  8
Layer 1
370
     0
100
AcDbVertex
100
AcDb2dVertex
 10
1182.4140625
 20
-103.8798828125
 30
0.0
  0
VERTEX
  5
1A6
330
199
100
AcDbEntity
  8
Layer 1
370
     0
100
AcDbVertex
100
AcDb2dVertex
 10
1183.759765625
 20
-104.35302734375
 30
0.0
  0
VERTEX
  5
1A7
330
199
100
AcDbEntity
  8
Layer 1
370
     0
100
AcDbVertex
100
AcDb2dVertex
 10
1185.251953125
 20
-104.35302734375
 30
0.0
  0
VERTEX
  5
1A8
330
199
100
AcDbEntity
  8
Layer 1
370
     0
100
AcDbVertex
100
AcDb2dVertex
 10
1186.5986328125
 20
-103.8798828125
 30
0.0
  0
VERTEX
  5
1A9
330
199
100
AcDbEntity
  8
Layer 1
370
     0
100
AcDbVertex
100
AcDb2dVertex
 10
1187.7265625
 20
-102.7880859375
 30
0.0
  0
VERTEX
  5
1AA
330
199
100
AcDbEntity
  8
Layer 1
370
     0
100
AcDbVertex
100
AcDb2dVertex
 10
1188.19921875
 20
-101.47802734375
 30
0.0
  0
SEQEND
  5
1AB
330
199
100
AcDbEntity
  8
Layer 1
370
     0
  0
HATCH
  5
1AC
330
41
100
AcDbEntity
  8
Layer 1
 62
     7
420
 16777215
100
AcDbHatch
 10
0.0
 20
0.0
 30
0.0
210
0.0
220
0.0
230
1.0
  2
SOLID
 70
     1
 71
     0
 91
        2
 92
        1
 93
       16
 72
     1
 10
1191.2197265625
 20
-101.87841796875
 11
1190.3828125
 21
-104.42578125
 72
     1
 10
1190.3828125
 20
-104.42578125
 11
1188.2724609375
 21
-106.42724609375
 72
     1
 10
1188.2724609375
 20
-106.42724609375
 11
1185.6884765625
 21
-107.26416015625
 72
     1
 10
1185.6884765625
 20
-107.26416015625
 11
1183.3232421875
 21
-107.26416015625
 72
     1
 10
1183.3232421875
 20
-107.26416015625
 11
1180.740234375
 21
-106.42724609375
 72
     1
 10
1180.740234375
 20
-106.42724609375
 11
1178.62890625
 21
-104.42578125
 72
     1
 10
1178.62890625
 20
-104.42578125
 11
1177.7919921875
 21
-101.87841796875
 72
     1
 10
1177.7919921875
 20
-101.87841796875
 11
1177.7919921875
 21
-99.5859375
 72
     1
 10
1177.7919921875
 20
-99.5859375
 11
1178.62890625
 21
-97.111328125
 72
     1
 10
1178.62890625
 20
-97.111328125
 11
1180.703125
 21
-95.03759765625
 72
     1
 10
1180.703125
 20
-95.03759765625
 11
1183.3232421875
 21
-94.23681640625
 72
     1
 10
1183.3232421875
 20
-94.23681640625
 11
1185.6884765625
 21
-94.23681640625
 72
     1
 10
1185.6884765625
 20
-94.23681640625
 11
1188.30859375
 21
-95.03759765625
 72
     1
 10
1188.30859375
 20
-95.03759765625
 11
1190.3828125
 21
-97.111328125
 72
     1
 10
1190.3828125
 20
-97.111328125
 11
1191.2197265625
 21
-99.5859375
 72
     1
 10
1191.2197265625
 20
-99.5859375
 11
1191.2197265625
 21
-101.87841796875
 97
        0
 92
        1
 93
       16
 72
     1
 10
1188.19921875
 20
-101.47802734375
 11
1188.19921875
 21
-100.0224609375
 72
     1
 10
1188.19921875
 20
-100.0224609375
 11
1187.7265625
 21
-98.712890625
 72
     1
 10
1187.7265625
 20
-98.712890625
 11
1186.5986328125
 21
-97.62109375
 72
     1
 10
1186.5986328125
 20
-97.62109375
 11
1185.251953125
 21
-97.14794921875
 72
     1
 10
1185.251953125
 20
-97.14794921875
 11
1183.759765625
 21
-97.14794921875
 72
     1
 10
1183.759765625
 20
-97.14794921875
 11
1182.4140625
 21
-97.62109375
 72
     1
 10
1182.4140625
 20
-97.62109375
 11
1181.2861328125
 21
-98.712890625
 72
     1
 10
1181.2861328125
 20
-98.712890625
 11
1180.7763671875
 21
-100.0224609375
 72
     1
 10
1180.7763671875
 20
-100.0224609375
 11
1180.7763671875
 21
-101.44189453125
 72
     1
 10
1180.7763671875
 20
-101.44189453125
 11
1181.2861328125
 21
-102.7880859375
 72
     1
 10
1181.2861328125
 20
-102.7880859375
 11
1182.4140625
 21
-103.8798828125
 72
     1
 10
1182.4140625
 20
-103.8798828125
 11
1183.759765625
 21
-104.35302734375
 72
     1
 10
1183.759765625
 20
-104.35302734375
 11
1185.251953125
 21
-104.35302734375
 72
     1
 10
1185.251953125
 20
-104.35302734375
 11
1186.5986328125
 21
-103.8798828125
 72
     1
 10
1186.5986328125
 20
-103.8798828125
 11
1187.7265625
 21
-102.7880859375
 72
     1
 10
1187.7265625
 20
-102.7880859375
 11
1188.19921875
 21
-101.47802734375
 97
        0
 75
     2
 76
     1
 98
        0
  0
ENDBLK
  5
44
330
41
100
AcDbEntity
  8
0
100
AcDbBlockEnd
  0
BLOCK
  5
1AF
330
1AD
100
AcDbEntity
  8
0
100
AcDbBlockBegin
  2
block 3
 70
     0
 10
0.0
 20
0.0
 30
0.0
  3
block 3
  1

  0
POLYLINE
  5
1B1
330
1AD
100
AcDbEntity
  8
Layer 1
 62
     7
420
 16777215
370
   106
100
AcDb2dPolyline
 66
     1
 10
0.0
 20
0.0
 30
0.0
  0
VERTEX
  5
1B2
330
1B1
100
AcDbEntity
  8
Layer 1
 62
     7
420
 16777215
370
   106
100
AcDbVertex
100
AcDb2dVertex
 10
325.5
 20
-159.2092713521924
 30
0.0
  0
VERTEX
  5
1B3
330
1B1
100
AcDbEntity
  8
Layer 1
 62
     7
420
 16777215
370
   106
100
AcDbVertex
100
AcDb2dVertex
 10
263.4999999984011
 20
-194.8011209333517
 30
0.0
  0
VERTEX
  5
1B4
330
1B1
100
AcDbEntity
  8
Layer 1
 62
     7
420
 16777215
370
   106
100
AcDbVertex
100
AcDb2dVertex
 10
201.5
 20
-159.2092713466564
 30
0.0
  0
VERTEX
  5
1B5
330
1B1
100
AcDbEntity
  8
Layer 1
 62
     7
420
 16777215
370
   106
100
AcDbVertex
100
AcDb2dVertex
 10
201.5
 20
-88.02557217880076
 30
0.0
  0
VERTEX
  5
1B6
330
1B1
100
AcDbEntity
  8
Layer 1
 62
     7
420
 16777215
370
   106
100
AcDbVertex
100
AcDb2dVertex
 10
263.5000000015971
 20
-52.43372259763964
 30
0.0
  0
VERTEX
  5
1B7
330
1B1
100
AcDbEntity
  8
Layer 1
 62
     7
420
 16777215
370
   106
100
AcDbVertex
100
AcDb2dVertex
 10
325.5
 20
-88.02557218433503
 30
0.0
  0
VERTEX
  5
1B8
330
1B1
100
AcDbEntity
  8
Layer 1
 62
     7
420
 16777215
370
   106
100
AcDbVertex
100
AcDb2dVertex
 10
325.5
 20
-159.2092713521924
 30
0.0
  0
SEQEND
  5
1B9
330
1B1
100
AcDbEntity
  8
Layer 1
 62
     7
420
 16777215
370
   106
  0
POLYLINE
  5
1BA
330
1AD
100
AcDbEntity
  8
Layer 1
 62
     7
420
 16777215
370
   106
100
AcDb2dPolyline
 66
     1
 10
0.0
 20
0.0
 30
0.0
  0
VERTEX
  5
1BB
330
1BA
100
AcDbEntity
  8
Layer 1
 62
     7
420
 16777215
370
   106
100
AcDbVertex
100
AcDb2dVertex
 10
388.6839175059285
 20
-52.46043059746808
 30
0.0
  0
VERTEX
  5
1BC
330
1BA
100
AcDbEntity
  8
Layer 1
 62
     7
420
 16777215
370
   106
100
AcDbVertex
100
AcDb2dVertex
 10
327.0506376244484
 20
-88.05228017862828
 30
0.0
  0
SEQEND
  5
1BD
330
1BA
100
AcDbEntity
  8
Layer 1
 62
     7
420
 16777215
370
   106
  0
POLYLINE
  5
1BE
330
1AD
100
AcDbEntity
  8
Layer 1
 62
     7
420
 16777215
370
   106
100
AcDb2dPolyline
 66
     1
 10
0.0
 20
0.0
 30
0.0
  0
VERTEX
  5
1BF
330
1BE
100
AcDbEntity
  8
Layer 1
 62
     7
420
 16777215
370
   106
100
AcDbVertex
100
AcDb2dVertex
 10
203.7840778646814
 20
-88.05228017862828
 30
0.0
  0
VERTEX
  5
1C0
330
1BE
100
AcDbEntity
  8
Layer 1
 62
     7
420
 16777215
370
   106
100
AcDbVertex
100
AcDb2dVertex
 10
142.1507979863964
 20
-52.46043059193289
 30
0.0
  0
SEQEND
  5
1C1
330
1BE
100
AcDbEntity
  8
Layer 1
 62
     7
420
 16777215
370
   106
  0
POLYLINE
  5
1C2
330
1AD
100
AcDbEntity
  8
Layer 1
 62
     7
420
 16777215
370
   106
100
AcDb2dPolyline
 66
     1
 10
0.0
 20
0.0
 30
0.0
  0
VERTEX
  5
1C3
330
1C2
100
AcDbEntity
  8
Layer 1
 62
     7
420
 16777215
370
   106
100
AcDbVertex
100
AcDb2dVertex
 10
203.7840778670743
 20
-159.1825633468306
 30
0.0
  0
VERTEX
  5
1C4
330
1C2
100
AcDbEntity
  8
Layer 1
 62
     7
420
 16777215
370
   106
100
AcDbVertex
100
AcDb2dVertex
 10
142.1507979855942
 20
-194.7744129279918
 30
0.0
  0
VERTEX
  5
1C5
330
1C2
100
AcDbEntity
  8
Layer 1
 62
     7
420
 16777215
370
   106
100
AcDbVertex
100
AcDb2dVertex
 10
80.51751810651422
 20
-159.2092713466564
 30
0.0
  0
SEQEND
  5
1C6
330
1C2
100
AcDbEntity
  8
Layer 1
 62
     7
420
 16777215
370
   106
  0
POLYLINE
  5
1C7
330
1AD
100
AcDbEntity
  8
Layer 1
 62
     7
420
 16777215
370
   106
100
AcDb2dPolyline
 66
     1
 10
0.0
 20
0.0
 30
0.0
  0
VERTEX
  5
1C8
330
1C7
100
AcDbEntity
  8
Layer 1
 62
     7
420
 16777215
370
   106
100
AcDbVertex
100
AcDb2dVertex
 10
140.5
 20
-266.0
 30
0.0
  0
VERTEX
  5
1C9
330
1C7
100
AcDbEntity
  8
Layer 1
 62
     7
420
 16777215
370
   106
100
AcDbVertex
100
AcDb2dVertex
 10
140.5
 20
-195.0
 30
0.0
  0
SEQEND
  5
1CA
330
1C7
100
AcDbEntity
  8
Layer 1
 62
     7
420
 16777215
370
   106
  0
ENDBLK
  5
1B0
330
1AD
100
AcDbEntity
  8
0
100
AcDbBlockEnd
  0
ENDSEC
  0
SECTION
  2
ENTITIES
  0
INSERT
  5
42
330
1F
100
AcDbEntity
  8
Layer 1
100
AcDbBlockReference
  2
block 2
 10
0.0
 20
0.0
 30
0.0
  0
INSERT
  5
1AE
330
1F
100
AcDbEntity
  8
Layer 1
100
AcDbBlockReference
  2
block 3
 10
0.0
 20
0.0
 30
0.0
  0
ENDSEC
  0
SECTION
  2
OBJECTS
  0
DICTIONARY
  5
C
330
0
100
AcDbDictionary
281
     1
  3
ACAD_GROUP
350
D
  3
ACAD_LAYOUT
350
1A
  3
ACAD_MATERIAL
350
3B
  3
ACAD_MLEADERSTYLE
350
1CC
  3
ACAD_MLINESTYLE
350
17
  3
ACAD_PLOTSETTINGS
350
19
  3
ACAD_PLOTSTYLENAME
350
E
  3
ACAD_TABLESTYLE
350
1CB
  3
ACAD_VISUALSTYLE
350
2A
  0
SUN
  5
3F
330
29
100
AcDbSun
 90
        1
290
     0
 63
     7
421
 16777215
 40
1.0
291
     1
 91
  2455826
 92
 54000000
292
     0
 70
     2
 71
   256
280
     1
  0
DICTIONARY
  5
D
102
{ACAD_REACTORS
330
C
102
}
330
C
100
AcDbDictionary
281
     1
  0
DICTIONARY
  5
1A
102
{ACAD_REACTORS
330
C
102
}
330
C
100
AcDbDictionary
281
     1
  3
Layout1
350
1E
  3
Layout2
350
26
  3
Model
350
22
  0
DICTIONARY
  5
3B
102
{ACAD_REACTORS
330
C
102
}
330
C
100
AcDbDictionary
281
     1
  3
ByBlock
350
3D
  3
ByLayer
350
3C
  3
Global
350
3E
  0
DICTIONARY
  5
1CC
102
{ACAD_REACTORS
330
C
102
}
330
C
100
AcDbDictionary
281
     1
  0
DICTIONARY
  5
17
102
{ACAD_REACTORS
330
C
102
}
330
C
100
AcDbDictionary
281
     1
  3
Standard
350
18
  0
DICTIONARY
  5
19
102
{ACAD_REACTORS
330
C
102
}
330
C
100
AcDbDictionary
281
     1
  0
ACDBDICTIONARYWDFLT
  5
E
102
{ACAD_REACTORS
330
C
102
}
330
C
100
AcDbDictionary
281
     1
  3
Normal
350
F
100
AcDbDictionaryWithDefault
340
F
  0
DICTIONARY
  5
1CB
102
{ACAD_REACTORS
330
C
102
}
330
C
100
AcDbDictionary
281
     1
  0
DICTIONARY
  5
2A
102
{ACAD_REACTORS
330
C
102
}
330
C
100
AcDbDictionary
281
     1
  3
2dWireframe
350
2F
  3
3D Hidden
350
31
  3
3dWireframe
350
30
  3
Basic
350
32
  3
Brighten
350
36
  3
ColorChange
350
3A
  3
Conceptual
350
34
  3
Dim
350
35
  3
Facepattern
350
39
  3
Flat
350
2B
  3
FlatWithEdges
350
2C
  3
Gouraud
350
2D
  3
GouraudWithEdges
350
2E
  3
Linepattern
350
38
  3
Realistic
350
33
  3
Thicken
350
37
  0
LAYOUT
  5
1E
102
{ACAD_REACTORS
330
1A
102
}
330
1A
100
AcDbPlotSettings
  1

  2
none_device
  4

  6

 40
0.0
 41
0.0
 42
0.0
 43
0.0
 44
0.0
 45
0.0
 46
0.0
 47
0.0
 48
0.0
 49
0.0
140
0.0
141
0.0
142
1.0
143
1.0
 70
   688
 72
     0
 73
     0
 74
     5
  7

 75
    16
 76
     0
 77
     2
 78
   300
147
1.0
148
0.0
149
0.0
100
AcDbLayout
  1
Layout1
 70
     1
 71
     1
 10
0.0
 20
0.0
 11
12.0
 21
9.0
 12
0.0
 22
0.0
 32
0.0
 14
1.000000000000000E+20
 24
1.000000000000000E+20
 34
1.000000000000000E+20
 15
-1.000000000000000E+20
 25
-1.000000000000000E+20
 35
-1.000000000000000E+20
146
0.0
 13
0.0
 23
0.0
 33
0.0
 16
1.0
 26
0.0
 36
0.0
 17
0.0
 27
1.0
 37
0.0
 76
     0
330
1B
  0
LAYOUT
  5
26
102
{ACAD_REACTORS
330
1A
102
}
330
1A
100
AcDbPlotSettings
  1

  2
none_device
  4

  6

 40
0.0
 41
0.0
 42
0.0
 43
0.0
 44
0.0
 45
0.0
 46
0.0
 47
0.0
 48
0.0
 49
0.0
140
0.0
141
0.0
142
1.0
143
1.0
 70
   688
 72
     0
 73
     0
 74
     5
  7

 75
    16
 76
     0
 77
     2
 78
   300
147
1.0
148
0.0
149
0.0
100
AcDbLayout
  1
Layout2
 70
     1
 71
     2
 10
0.0
 20
0.0
 11
0.0
 21
0.0
 12
0.0
 22
0.0
 32
0.0
 14
0.0
 24
0.0
 34
0.0
 15
0.0
 25
0.0
 35
0.0
146
0.0
 13
0.0
 23
0.0
 33
0.0
 16
1.0
 26
0.0
 36
0.0
 17
0.0
 27
1.0
 37
0.0
 76
     0
330
23
  0
LAYOUT
  5
22
102
{ACAD_REACTORS
330
1A
102
}
330
1A
100
AcDbPlotSettings
  1

  2
none_device
  4

  6

 40
0.0
 41
0.0
 42
0.0
 43
0.0
 44
0.0
 45
0.0
 46
0.0
 47
0.0
 48
0.0
 49
0.0
140
0.0
141
0.0
142
1.0
143
1.0
 70
  1712
 72
     0
 73
     0
 74
     0
  7

 75
     0
 76
     0
 77
     2
 78
   300
147
1.0
148
0.0
149
0.0
100
AcDbLayout
  1
Model
 70
     1
 71
     0
 10
0.0
 20
0.0
 11
12.0
 21
9.0
 12
0.0
 22
0.0
 32
0.0
 14
1.000000000000000E+20
 24
1.000000000000000E+20
 34
1.000000000000000E+20
 15
-1.000000000000000E+20
 25
-1.000000000000000E+20
 35
-1.000000000000000E+20
146
0.0
 13
0.0
 23
0.0
 33
0.0
 16
1.0
 26
0.0
 36
0.0
 17
0.0
 27
1.0
 37
0.0
 76
     0
330
1F
331
29
  0
MATERIAL
  5
3D
102
{ACAD_REACTORS
330
3B
102
}
330
3B
100
AcDbMaterial
  1
ByBlock
 72
     1
 94
      127
  0
MATERIAL
  5
3C
102
{ACAD_REACTORS
330
3B
102
}
330
3B
100
AcDbMaterial
  1
ByLayer
 72
     1
 94
      127
  0
MATERIAL
  5
3E
102
{ACAD_REACTORS
330
3B
102
}
330
3B
100
AcDbMaterial
  1
Global
 72
     1
 94
      127
  0
MLINESTYLE
  5
18
102
{ACAD_REACTORS
330
17
102
}
330
17
100
AcDbMlineStyle
  2
Standard
 70
     0
  3

 62
   256
 51
90.0
 52
90.0
 71
     2
 49
0.5
 62
   256
  6
BYLAYER
 49
-0.5
 62
   256
  6
BYLAYER
  0
ACDBPLACEHOLDER
  5
F
102
{ACAD_REACTORS
330
E
102
}
330
E
  0
VISUALSTYLE
  5
2F
102
{ACAD_REACTORS
330
2A
102
}
330
2A
100
AcDbVisualStyle
  2
2dWireframe
 70
     4
177
     2
291
     0
 71
     0
176
     1
 72
     2
176
     1
 73
     0
176
     1
 90
        0
176
     1
 40
-0.6
176
     1
 41
-30.0
176
     1
 62
     5
 63
     7
421
 16777215
176
     1
 74
     1
176
     1
 91
        4
176
     1
 64
     7
176
     1
 65
   257
176
     1
 75
     1
176
     1
175
     1
176
     1
 42
1.0
176
     1
 92
        0
176
     1
 66
   257
176
     1
 43
1.0
176
     1
 76
     1
176
     1
 77
     6
176
     1
 78
     2
176
     1
 67
     7
176
     1
 79
     5
176
     1
170
     0
176
     1
171
     0
176
     1
290
     0
176
     1
 93
        1
176
     1
 44
0.0
176
     1
173
     0
176
     1
  0
VISUALSTYLE
  5
31
102
{ACAD_REACTORS
330
2A
102
}
330
2A
100
AcDbVisualStyle
  2
3D Hidden
 70
     6
177
     2
291
     0
 71
     1
176
     1
 72
     2
176
     1
 73
     2
176
     1
 90
        0
176
     1
 40
-0.6
176
     1
 41
-30.0
176
     1
 62
     5
 63
     7
421
 16777215
176
     1
 74
     2
176
     1
 91
        2
176
     1
 64
     7
176
     1
 65
   257
176
     1
 75
     2
176
     1
175
     1
176
     1
 42
40.0
176
     1
 92
        0
176
     1
 66
   257
176
     1
 43
1.0
176
     1
 76
     1
176
     1
 77
     6
176
     1
 78
     2
176
     1
 67
     7
176
     1
 79
     3
176
     1
170
     0
176
     1
171
     0
176
     1
290
     0
176
     1
 93
        1
176
     1
 44
0.0
176
     1
173
     0
176
     1
  0
VISUALSTYLE
  5
30
102
{ACAD_REACTORS
330
2A
102
}
330
2A
100
AcDbVisualStyle
  2
3dWireframe
 70
     5
177
     2
291
     0
 71
     0
176
     1
 72
     2
176
     1
 73
     0
176
     1
 90
        0
176
     1
 40
-0.6
176
     1
 41
-30.0
176
     1
 62
     5
 63
     7
421
 16777215
176
     1
 74
     1
176
     1
 91
        4
176
     1
 64
     7
176
     1
 65
   257
176
     1
 75
     1
176
     1
175
     1
176
     1
 42
1.0
176
     1
 92
        0
176
     1
 66
   257
176
     1
 43
1.0
176
     1
 76
     1
176
     1
 77
     6
176
     1
 78
     2
176
     1
 67
     7
176
     1
 79
     5
176
     1
170
     0
176
     1
171
     0
176
     1
290
     0
176
     1
 93
        1
176
     1
 44
0.0
176
     1
173
     0
176
     1
  0
VISUALSTYLE
  5
32
102
{ACAD_REACTORS
330
2A
102
}
330
2A
100
AcDbVisualStyle
  2
Basic
 70
     7
177
     2
291
     1
 71
     1
176
     1
 72
     0
176
     1
 73
     1
176
     1
 90
        0
176
     1
 40
-0.6
176
     1
 41
-30.0
176
     1
 62
     5
 63
     7
421
 16777215
176
     1
 74
     0
176
     1
 91
        4
176
     1
 64
     7
176
     1
 65
   257
176
     1
 75
     1
176
     1
175
     1
176
     1
 42
1.0
176
     1
 92
        8
176
     1
 66
     7
176
     1
 43
1.0
176
     1
 76
     1
176
     1
 77
     6
176
     1
 78
     2
176
     1
 67
     7
176
     1
 79
     5
176
     1
170
     0
176
     1
171
     0
176
     1
290
     0
176
     1
 93
        1
176
     1
 44
0.0
176
     1
173
     0
176
     1
  0
VISUALSTYLE
  5
36
102
{ACAD_REACTORS
330
2A
102
}
330
2A
100
AcDbVisualStyle
  2
Brighten
 70
    12
177
     2
291
     1
 71
     2
176
     1
 72
     2
176
     1
 73
     0
176
     1
 90
        0
176
     1
 40
-0.6
176
     1
 41
-30.0
176
     1
 62
     5
 63
     7
421
 16777215
176
     1
 74
     1
176
     1
 91
        4
176
     1
 64
     7
176
     1
 65
   257
176
     1
 75
     1
176
     1
175
     1
176
     1
 42
1.0
176
     1
 92
        8
176
     1
 66
     7
176
     1
 43
1.0
176
     1
 76
     1
176
     1
 77
     6
176
     1
 78
     2
176
     1
 67
     7
176
     1
 79
     5
176
     1
170
     0
176
     1
171
     0
176
     1
290
     0
176
     1
 93
        1
176
     1
 44
50.0
176
     1
173
     0
176
     1
  0
VISUALSTYLE
  5
3A
102
{ACAD_REACTORS
330
2A
102
}
330
2A
100
AcDbVisualStyle
  2
ColorChange
 70
    16
177
     2
291
     1
 71
     2
176
     1
 72
     2
176
     1
 73
     3
176
     1
 90
        0
176
     1
 40
-0.6
176
     1
 41
-30.0
176
     1
 62
     5
 63
     8
421
  8421504
176
     1
 74
     1
176
     1
 91
        4
176
     1
 64
     7
176
     1
 65
   257
176
     1
 75
     1
176
     1
175
     1
176
     1
 42
1.0
176
     1
 92
        8
176
     1
 66
     8
424
  8421504
176
     1
 43
1.0
176
     1
 76
     1
176
     1
 77
     6
176
     1
 78
     2
176
     1
 67
     7
176
     1
 79
     5
176
     1
170
     0
176
     1
171
     0
176
     1
290
     0
176
     1
 93
        1
176
     1
 44
0.0
176
     1
173
     0
176
     1
  0
VISUALSTYLE
  5
34
102
{ACAD_REACTORS
330
2A
102
}
330
2A
100
AcDbVisualStyle
  2
Conceptual
 70
     9
177
     2
291
     0
 71
     3
176
     1
 72
     2
176
     1
 73
     0
176
     1
 90
        0
176
     1
 40
-0.6
176
     1
 41
-30.0
176
     1
 62
     5
 63
     7
421
 16777215
176
     1
 74
     2
176
     1
 91
        2
176
     1
 64
     7
176
     1
 65
   257
176
     1
 75
     1
176
     1
175
     1
176
     1
 42
40.0
176
     1
 92
        8
176
     1
 66
     7
176
     1
 43
1.0
176
     1
 76
     1
176
     1
 77
     6
176
     1
 78
     2
176
     1
 67
     7
176
     1
 79
     3
176
     1
170
     0
176
     1
171
     0
176
     1
290
     0
176
     1
 93
        1
176
     1
 44
0.0
176
     1
173
     0
176
     1
  0
VISUALSTYLE
  5
35
102
{ACAD_REACTORS
330
2A
102
}
330
2A
100
AcDbVisualStyle
  2
Dim
 70
    11
177
     2
291
     1
 71
     2
176
     1
 72
     2
176
     1
 73
     0
176
     1
 90
        0
176
     1
 40
-0.6
176
     1
 41
-30.0
176
     1
 62
     5
 63
     7
421
 16777215
176
     1
 74
     1
176
     1
 91
        4
176
     1
 64
     7
176
     1
 65
   257
176
     1
 75
     1
176
     1
175
     1
176
     1
 42
1.0
176
     1
 92
        8
176
     1
 66
     7
176
     1
 43
1.0
176
     1
 76
     1
176
     1
 77
     6
176
     1
 78
     2
176
     1
 67
     7
176
     1
 79
     5
176
     1
170
     0
176
     1
171
     0
176
     1
290
     0
176
     1
 93
        1
176
     1
 44
-50.0
176
     1
173
     0
176
     1
  0
VISUALSTYLE
  5
39
102
{ACAD_REACTORS
330
2A
102
}
330
2A
100
AcDbVisualStyle
  2
Facepattern
 70
    15
177
     2
291
     1
 71
     2
176
     1
 72
     2
176
     1
 73
     0
176
     1
 90
        0
176
     1
 40
-0.6
176
     1
 41
-30.0
176
     1
 62
     5
 63
     7
421
 16777215
176
     1
 74
     1
176
     1
 91
        4
176
     1
 64
     7
176
     1
 65
   257
176
     1
 75
     1
176
     1
175
     1
176
     1
 42
1.0
176
     1
 92
        8
176
     1
 66
     7
176
     1
 43
1.0
176
     1
 76
     1
176
     1
 77
     6
176
     1
 78
     2
176
     1
 67
     7
176
     1
 79
     5
176
     1
170
     0
176
     1
171
     0
176
     1
290
     0
176
     1
 93
        1
176
     1
 44
0.0
176
     1
173
     0
176
     1
  0
VISUALSTYLE
  5
2B
102
{ACAD_REACTORS
330
2A
102
}
330
2A
100
AcDbVisualStyle
  2
Flat
 70
     0
177
     2
291
     1
 71
     2
176
     1
 72
     1
176
     1
 73
     1
176
     1
 90
        2
176
     1
 40
-0.6
176
     1
 41
30.0
176
     1
 62
     5
 63
     7
421
 16777215
176
     1
 74
     0
176
     1
 91
        4
176
     1
 64
     7
176
     1
 65
   257
176
     1
 75
     1
176
     1
175
     1
176
     1
 42
1.0
176
     1
 92
        8
176
     1
 66
     7
176
     1
 43
1.0
176
     1
 76
     1
176
     1
 77
     6
176
     1
 78
     2
176
     1
 67
     7
176
     1
 79
     5
176
     1
170
     0
176
     1
171
     0
176
     1
290
     0
176
     1
 93
       13
176
     1
 44
0.0
176
     1
173
     0
176
     1
  0
VISUALSTYLE
  5
2C
102
{ACAD_REACTORS
330
2A
102
}
330
2A
100
AcDbVisualStyle
  2
FlatWithEdges
 70
     1
177
     2
291
     1
 71
     2
176
     1
 72
     1
176
     1
 73
     1
176
     1
 90
        2
176
     1
 40
-0.6
176
     1
 41
30.0
176
     1
 62
     5
 63
     7
421
 16777215
176
     1
 74
     1
176
     1
 91
        4
176
     1
 64
     7
176
     1
 65
   257
176
     1
 75
     1
176
     1
175
     1
176
     1
 42
1.0
176
     1
 92
        0
176
     1
 66
   257
176
     1
 43
1.0
176
     1
 76
     1
176
     1
 77
     6
176
     1
 78
     2
176
     1
 67
     7
176
     1
 79
     5
176
     1
170
     0
176
     1
171
     0
176
     1
290
     0
176
     1
 93
       13
176
     1
 44
0.0
176
     1
173
     0
176
     1
  0
VISUALSTYLE
  5
2D
102
{ACAD_REACTORS
330
2A
102
}
330
2A
100
AcDbVisualStyle
  2
Gouraud
 70
     2
177
     2
291
     1
 71
     2
176
     1
 72
     2
176
     1
 73
     1
176
     1
 90
        2
176
     1
 40
-0.6
176
     1
 41
30.0
176
     1
 62
     5
 63
     7
421
 16777215
176
     1
 74
     0
176
     1
 91
        4
176
     1
 64
     7
176
     1
 65
   257
176
     1
 75
     1
176
     1
175
     1
176
     1
 42
1.0
176
     1
 92
        0
176
     1
 66
     7
176
     1
 43
1.0
176
     1
 76
     1
176
     1
 77
     6
176
     1
 78
     2
176
     1
 67
     7
176
     1
 79
     5
176
     1
170
     0
176
     1
171
     0
176
     1
290
     0
176
     1
 93
       13
176
     1
 44
0.0
176
     1
173
     0
176
     1
  0
VISUALSTYLE
  5
2E
102
{ACAD_REACTORS
330
2A
102
}
330
2A
100
AcDbVisualStyle
  2
GouraudWithEdges
 70
     3
177
     2
291
     1
 71
     2
176
     1
 72
     2
176
     1
 73
     1
176
     1
 90
        2
176
     1
 40
-0.6
176
     1
 41
30.0
176
     1
 62
     5
 63
     7
421
 16777215
176
     1
 74
     1
176
     1
 91
        4
176
     1
 64
     7
176
     1
 65
   257
176
     1
 75
     1
176
     1
175
     1
176
     1
 42
1.0
176
     1
 92
        0
176
     1
 66
   257
176
     1
 43
1.0
176
     1
 76
     1
176
     1
 77
     6
176
     1
 78
     2
176
     1
 67
     7
176
     1
 79
     5
176
     1
170
     0
176
     1
171
     0
176
     1
290
     0
176
     1
 93
       13
176
     1
 44
0.0
176
     1
173
     0
176
     1
  0
VISUALSTYLE
  5
38
102
{ACAD_REACTORS
330
2A
102
}
330
2A
100
AcDbVisualStyle
  2
Linepattern
 70
    14
177
     2
291
     1
 71
     2
176
     1
 72
     2
176
     1
 73
     0
176
     1
 90
        0
176
     1
 40
-0.6
176
     1
 41
-30.0
176
     1
 62
     5
 63
     7
421
 16777215
176
     1
 74
     1
176
     1
 91
        4
176
     1
 64
     7
176
     1
 65
   257
176
     1
 75
     7
176
     1
175
     7
176
     1
 42
1.0
176
     1
 92
        8
176
     1
 66
     7
176
     1
 43
1.0
176
     1
 76
     1
176
     1
 77
     6
176
     1
 78
     2
176
     1
 67
     7
176
     1
 79
     5
176
     1
170
     0
176
     1
171
     0
176
     1
290
     0
176
     1
 93
        1
176
     1
 44
0.0
176
     1
173
     0
176
     1
  0
VISUALSTYLE
  5
33
102
{ACAD_REACTORS
330
2A
102
}
330
2A
100
AcDbVisualStyle
  2
Realistic
 70
     8
177
     2
291
     0
 71
     2
176
     1
 72
     2
176
     1
 73
     0
176
     1
 90
        0
176
     1
 40
-0.6
176
     1
 41
-30.0
176
     1
 62
     5
 63
     7
421
 16777215
176
     1
 74
     1
176
     1
 91
        0
176
     1
 64
     7
176
     1
 65
   257
176
     1
 75
     1
176
     1
175
     1
176
     1
 42
1.0
176
     1
 92
        8
176
     1
 66
     8
424
  7895160
176
     1
 43
1.0
176
     1
 76
     1
176
     1
 77
     6
176
     1
 78
     2
176
     1
 67
     7
176
     1
 79
     5
176
     1
170
     0
176
     1
171
     0
176
     1
290
     0
176
     1
 93
       13
176
     1
 44
0.0
176
     1
173
     0
176
     1
  0
VISUALSTYLE
  5
37
102
{ACAD_REACTORS
330
2A
102
}
330
2A
100
AcDbVisualStyle
  2
Thicken
 70
    13
177
     2
291
     1
 71
     2
176
     1
 72
     2
176
     1
 73
     0
176
     1
 90
        0
176
     1
 40
-0.6
176
     1
 41
-30.0
176
     1
 62
     5
 63
     7
421
 16777215
176
     1
 74
     1
176
     1
 91
        4
176
     1
 64
     7
176
     1
 65
   257
176
     1
 75
     1
176
     1
175
     1
176
     1
 42
1.0
176
     1
 92
       12
176
     1
 66
     7
176
     1
 43
1.0
176
     1
 76
     1
176
     1
 77
     6
176
     1
 78
     2
176
     1
 67
     7
176
     1
 79
     5
176
     1
170
     0
176
     1
171
     0
176
     1
290
     0
176
     1
 93
        1
176
     1
 44
0.0
176
     1
173
     0
176
     1
  0
ENDSEC
  0
EOF
